<?xml version="1.0" encoding="UTF-8" standalone="no"?>
<svg
   xmlns:dc="http://purl.org/dc/elements/1.1/"
   xmlns:cc="http://creativecommons.org/ns#"
   xmlns:rdf="http://www.w3.org/1999/02/22-rdf-syntax-ns#"
   xmlns:svg="http://www.w3.org/2000/svg"
   xmlns="http://www.w3.org/2000/svg"
   xmlns:sodipodi="http://sodipodi.sourceforge.net/DTD/sodipodi-0.dtd"
   xmlns:inkscape="http://www.inkscape.org/namespaces/inkscape"
   width="210mm"
   height="297mm"
   viewBox="0 0 210 297"
   version="1.1"
   id="svg8"
   inkscape:version="1.0 (4035a4fb49, 2020-05-01)"
   sodipodi:docname="ppl3.svg">
  <defs
     id="defs2">
    <linearGradient
       id="linearGradient46"
       spreadMethod="pad"
       gradientTransform="matrix(0,500,500,0,250,0)"
       gradientUnits="userSpaceOnUse"
       y2="0"
       x2="1"
       y1="0"
       x1="0">
      <stop
         id="stop32"
         offset="0"
         style="stop-opacity:1;stop-color:#eeeeee" />
      <stop
         id="stop34"
         offset="0.300971"
         style="stop-opacity:1;stop-color:#eeeeee" />
      <stop
         id="stop36"
         offset="0.31539979"
         style="stop-opacity:1;stop-color:#eeeeee" />
      <stop
         id="stop38"
         offset="0.34466"
         style="stop-opacity:1;stop-color:#d9d9d9" />
      <stop
         id="stop40"
         offset="0.34629237"
         style="stop-opacity:1;stop-color:#d9d9d9" />
      <stop
         id="stop42"
         offset="0.364078"
         style="stop-opacity:1;stop-color:#f7f7f7" />
      <stop
         id="stop44"
         offset="1"
         style="stop-opacity:1;stop-color:#f7f7f7" />
    </linearGradient>
    <clipPath
       id="clipPath60"
       clipPathUnits="userSpaceOnUse">
      <path
         id="path58"
         d="M 0,500 H 500 V 0 H 0 Z" />
    </clipPath>
    <clipPath
       id="clipPath100"
       clipPathUnits="userSpaceOnUse">
      <path
         id="path98"
         d="m 132.328,221.235 c 0,0 -9.982,-12.302 -9.087,-28.046 v 0 c 0.919,-16.188 11.727,-23.828 11.727,-23.828 v 0 c 0,0 0.72,0.987 1.522,2.55 v 0 c 0.666,1.298 0.403,3.042 0.403,3.042 v 0 c 0,0 -6.279,4.718 -6.54,16.535 v 0 c -0.232,10.476 3.433,13.445 3.433,13.445 v 0 l 3.37,-28.241 c 0,0 3.627,-6.93 23.373,-6.509 v 0 c 18.061,0.386 20.877,7.518 20.877,7.518 v 0 l 1.922,29.452 c 8.974,-14.823 -2,-30.584 -2,-30.584 v 0 l 3.08,-3.69 c 0,0 7.81,6.598 8.794,20.935 v 0 c 1.341,19.537 -7.761,28.788 -8.8,29.777 v 0 l 0.282,4.333 c -9.844,-10.677 -23.51,-13.443 -23.51,-13.443 v 0 c -19.325,2.862 -29.664,14.478 -29.664,14.478 v 0 z" />
    </clipPath>
    <clipPath
       id="clipPath120"
       clipPathUnits="userSpaceOnUse">
      <path
         id="path118"
         d="M 0,500 H 500 V 0 H 0 Z" />
    </clipPath>
    <clipPath
       id="clipPath128"
       clipPathUnits="userSpaceOnUse">
      <path
         id="path126"
         d="m 183.204,223.685 h 1.198 v -16.532 h -1.198 z" />
    </clipPath>
    <pattern
       id="pattern178"
       height="100"
       width="100"
       y="0"
       x="0"
       patternUnits="userSpaceOnUse"
       patternTransform="matrix(0.536791,0,0,0.536791,-3627.18,4226.75)">
      <path
         id="path130"
         style="fill:#7f5722;fill-opacity:1;fill-rule:nonzero;stroke:none"
         d="m -98.865,64.38 100,0 0,-3.305 -100,0 0,3.305 z" />
      <path
         id="path132"
         style="fill:#7f5722;fill-opacity:0.5;fill-rule:nonzero;stroke:none"
         d="m -98.865,71.861 100,0 0,-18.267 -100,0 0,18.267 z" />
      <path
         id="path134"
         style="fill:#7f5722;fill-opacity:1;fill-rule:nonzero;stroke:none"
         d="m -98.865,38.924 100,0 0,-3.305 -100,0 0,3.305 z" />
      <path
         id="path136"
         style="fill:#7f5722;fill-opacity:0.5;fill-rule:nonzero;stroke:none"
         d="m -98.865,46.405 100,0 0,-18.267 -100,0 0,18.267 z" />
      <path
         id="path138"
         style="fill:#7f5722;fill-opacity:1;fill-rule:nonzero;stroke:none"
         d="m -98.865,13.467 100,0 0,-3.305 -100,0 0,3.305 z" />
      <path
         id="path140"
         style="fill:#7f5722;fill-opacity:0.5;fill-rule:nonzero;stroke:none"
         d="m -98.865,20.948 100,0 0,-18.267 -100,0 0,18.267 z" />
      <path
         id="path142"
         style="fill:#7f5722;fill-opacity:1;fill-rule:nonzero;stroke:none"
         d="m -98.865,89.837 100,0 0,-3.305 -100,0 0,3.305 z" />
      <path
         id="path144"
         style="fill:#7f5722;fill-opacity:0.5;fill-rule:nonzero;stroke:none"
         d="m -98.865,97.318 100,0 0,-18.267 -100,0 0,18.267 z" />
      <path
         id="path146"
         style="fill:#7f5722;fill-opacity:1;fill-rule:nonzero;stroke:none"
         d="m 40.06,0 -3.305,0 0,100 3.305,0 0,-100 z" />
      <path
         id="path148"
         style="fill:#7f5722;fill-opacity:0.5;fill-rule:nonzero;stroke:none"
         d="m 47.54,0 -18.267,0 0,100 18.267,0 0,-100 z" />
      <path
         id="path150"
         style="fill:#7f5722;fill-opacity:1;fill-rule:nonzero;stroke:none"
         d="m 65.516,0 -3.305,0 0,100 3.305,0 0,-100 z" />
      <path
         id="path152"
         style="fill:#7f5722;fill-opacity:0.5;fill-rule:nonzero;stroke:none"
         d="m 72.996,0 -18.267,0 0,100 18.267,0 0,-100 z" />
      <path
         id="path154"
         style="fill:#7f5722;fill-opacity:1;fill-rule:nonzero;stroke:none"
         d="m 90.973,0 -3.305,0 0,100 3.305,0 0,-100 z" />
      <path
         id="path156"
         style="fill:#7f5722;fill-opacity:0.5;fill-rule:nonzero;stroke:none"
         d="m 98.453,0 -18.267,0 0,100 18.267,0 0,-100 z" />
      <path
         id="path158"
         style="fill:#7f5722;fill-opacity:1;fill-rule:nonzero;stroke:none"
         d="m 14.603,0 -3.305,0 0,100 3.305,0 0,-100 z" />
      <path
         id="path160"
         style="fill:#7f5722;fill-opacity:0.5;fill-rule:nonzero;stroke:none"
         d="m 22.083,0 -18.267,0 0,100 18.267,0 0,-100 z" />
      <path
         id="path162"
         style="fill:#7f5722;fill-opacity:1;fill-rule:nonzero;stroke:none"
         d="m 1.135,64.38 100,0 0,-3.305 -100,0 0,3.305 z" />
      <path
         id="path164"
         style="fill:#7f5722;fill-opacity:0.5;fill-rule:nonzero;stroke:none"
         d="m 1.135,71.861 100,0 0,-18.267 -100,0 0,18.267 z" />
      <path
         id="path166"
         style="fill:#7f5722;fill-opacity:1;fill-rule:nonzero;stroke:none"
         d="m 1.135,38.924 100,0 0,-3.305 -100,0 0,3.305 z" />
      <path
         id="path168"
         style="fill:#7f5722;fill-opacity:0.5;fill-rule:nonzero;stroke:none"
         d="m 1.135,46.405 100,0 0,-18.267 -100,0 0,18.267 z" />
      <path
         id="path170"
         style="fill:#7f5722;fill-opacity:1;fill-rule:nonzero;stroke:none"
         d="m 1.135,13.467 100,0 0,-3.305 -100,0 0,3.305 z" />
      <path
         id="path172"
         style="fill:#7f5722;fill-opacity:0.5;fill-rule:nonzero;stroke:none"
         d="m 1.135,20.948 100,0 0,-18.267 -100,0 0,18.267 z" />
      <path
         id="path174"
         style="fill:#7f5722;fill-opacity:1;fill-rule:nonzero;stroke:none"
         d="m 1.135,89.837 100,0 0,-3.305 -100,0 0,3.305 z" />
      <path
         id="path176"
         style="fill:#7f5722;fill-opacity:0.5;fill-rule:nonzero;stroke:none"
         d="m 1.135,97.318 100,0 0,-18.267 -100,0 0,18.267 z" />
    </pattern>
    <clipPath
       id="clipPath194"
       clipPathUnits="userSpaceOnUse">
      <path
         id="path192"
         d="m 183.204,223.685 h 1.198 v -16.532 h -1.198 z" />
    </clipPath>
    <pattern
       id="pattern228"
       height="100"
       width="100"
       y="0"
       x="0"
       patternUnits="userSpaceOnUse"
       patternTransform="matrix(0.536791,0,0,0.536791,-3627.18,4226.75)">
      <path
         id="path196"
         style="fill:#ec1c24;fill-opacity:1;fill-rule:nonzero;stroke:none"
         d="m 39.269,0 -3.305,0 0,100 3.305,0 0,-100 z" />
      <path
         id="path198"
         style="fill:#ae1f23;fill-opacity:0.5;fill-rule:nonzero;stroke:none"
         d="m 42.367,0 -9.501,0 0,100 9.501,0 0,-100 z" />
      <path
         id="path200"
         style="fill:#ec1c24;fill-opacity:1;fill-rule:nonzero;stroke:none"
         d="m 14.502,0 -3.305,0 0,100 3.305,0 0,-100 z" />
      <path
         id="path202"
         style="fill:#ae1f23;fill-opacity:0.5;fill-rule:nonzero;stroke:none"
         d="M 17.601,0 8.1,0 l 0,100 9.501,0 0,-100 z" />
      <path
         id="path204"
         style="fill:#ae1f23;fill-opacity:0.5;fill-rule:nonzero;stroke:none"
         d="m 67.134,0 -9.501,0 0,100 9.501,0 0,-100 z" />
      <path
         id="path206"
         style="fill:#ec1c24;fill-opacity:1;fill-rule:nonzero;stroke:none"
         d="m 64.036,0 -3.305,0 0,100 3.305,0 0,-100 z" />
      <path
         id="path208"
         style="fill:#ec1c24;fill-opacity:1;fill-rule:nonzero;stroke:none"
         d="m 88.802,0 -3.305,0 0,100 3.305,0 0,-100 z" />
      <path
         id="path210"
         style="fill:#ae1f23;fill-opacity:0.5;fill-rule:nonzero;stroke:none"
         d="m 91.9,0 -9.501,0 0,100 9.501,0 0,-100 z" />
      <path
         id="path212"
         style="fill:#ec1c24;fill-opacity:1;fill-rule:nonzero;stroke:none"
         d="m 0,64.035 100,0 0,-3.305 -100,0 0,3.305 z" />
      <path
         id="path214"
         style="fill:#ae1f23;fill-opacity:0.5;fill-rule:nonzero;stroke:none"
         d="m 0,67.134 100,0 0,-9.501 -100,0 0,9.501 z" />
      <path
         id="path216"
         style="fill:#ec1c24;fill-opacity:1;fill-rule:nonzero;stroke:none"
         d="m 0,88.803 100,0 0,-3.305 -100,0 0,3.305 z" />
      <path
         id="path218"
         style="fill:#ae1f23;fill-opacity:0.5;fill-rule:nonzero;stroke:none"
         d="m 0,91.9 100,0 0,-9.501 -100,0 0,9.501 z" />
      <path
         id="path220"
         style="fill:#ec1c24;fill-opacity:1;fill-rule:nonzero;stroke:none"
         d="m 0,39.27 100,0 0,-3.305 -100,0 0,3.305 z" />
      <path
         id="path222"
         style="fill:#ae1f23;fill-opacity:0.5;fill-rule:nonzero;stroke:none"
         d="m 0,42.367 100,0 0,-9.501 -100,0 0,9.501 z" />
      <path
         id="path224"
         style="fill:#ec1c24;fill-opacity:1;fill-rule:nonzero;stroke:none"
         d="m 0,14.502 100,0 0,-3.305 -100,0 0,3.305 z" />
      <path
         id="path226"
         style="fill:#ae1f23;fill-opacity:0.5;fill-rule:nonzero;stroke:none"
         d="m 0,17.601 100,0 0,-9.501 -100,0 0,9.501 z" />
    </pattern>
    <clipPath
       id="clipPath288"
       clipPathUnits="userSpaceOnUse">
      <path
         id="path286"
         d="m 163.168,246.982 h 1.36 v -5.785 h -1.36 z" />
    </clipPath>
    <clipPath
       id="clipPath304"
       clipPathUnits="userSpaceOnUse">
      <path
         id="path302"
         d="m 151.061,261.625 h 5.533 v -8.737 h -5.533 z" />
    </clipPath>
    <clipPath
       id="clipPath320"
       clipPathUnits="userSpaceOnUse">
      <path
         id="path318"
         d="m 165.785,261.568 h 6.663 v -8.089 h -6.663 z" />
    </clipPath>
    <clipPath
       id="clipPath336"
       clipPathUnits="userSpaceOnUse">
      <path
         id="path334"
         d="m 146.644,252.294 h 1.184 v -3.121 h -1.184 z" />
    </clipPath>
    <clipPath
       id="clipPath352"
       clipPathUnits="userSpaceOnUse">
      <path
         id="path350"
         d="m 174.479,252.247 h 1.185 v -3.121 h -1.185 z" />
    </clipPath>
    <clipPath
       id="clipPath376"
       clipPathUnits="userSpaceOnUse">
      <path
         id="path374"
         d="m 132.332,291.542 h 43.719 v -11.308 h -43.719 z" />
    </clipPath>
    <clipPath
       id="clipPath392"
       clipPathUnits="userSpaceOnUse">
      <path
         id="path390"
         d="m 160.39,292.252 h 11.97 v -5.16 h -11.97 z" />
    </clipPath>
    <clipPath
       id="clipPath408"
       clipPathUnits="userSpaceOnUse">
      <path
         id="path406"
         d="m 150.584,293.713 h 21.095 v -4.485 h -21.095 z" />
    </clipPath>
    <clipPath
       id="clipPath424"
       clipPathUnits="userSpaceOnUse">
      <path
         id="path422"
         d="m 162.526,295.499 h 8.935 v -3.925 h -8.935 z" />
    </clipPath>
    <clipPath
       id="clipPath440"
       clipPathUnits="userSpaceOnUse">
      <path
         id="path438"
         d="m 127.447,288.001 h 13.234 v -10.308 h -13.234 z" />
    </clipPath>
    <clipPath
       id="clipPath456"
       clipPathUnits="userSpaceOnUse">
      <path
         id="path454"
         d="m 138.382,287.451 h 16.006 v -11.355 h -16.006 z" />
    </clipPath>
    <clipPath
       id="clipPath472"
       clipPathUnits="userSpaceOnUse">
      <path
         id="path470"
         d="m 140.404,288.101 h 21.558 v -12.173 h -21.558 z" />
    </clipPath>
    <clipPath
       id="clipPath488"
       clipPathUnits="userSpaceOnUse">
      <path
         id="path486"
         d="m 156.304,281.452 h 9.05 v -5.317 h -9.05 z" />
    </clipPath>
    <clipPath
       id="clipPath504"
       clipPathUnits="userSpaceOnUse">
      <path
         id="path502"
         d="m 157.205,288.901 h 17.367 v -9.633 h -17.367 z" />
    </clipPath>
    <clipPath
       id="clipPath520"
       clipPathUnits="userSpaceOnUse">
      <path
         id="path518"
         d="m 179.846,288.529 h 6.317 v -5.138 h -6.317 z" />
    </clipPath>
    <clipPath
       id="clipPath536"
       clipPathUnits="userSpaceOnUse">
      <path
         id="path534"
         d="m 180.522,287.156 h 2.704 v -1.884 h -2.704 z" />
    </clipPath>
    <clipPath
       id="clipPath552"
       clipPathUnits="userSpaceOnUse">
      <path
         id="path550"
         d="m 178.236,286.294 h 7.257 v -5.557 h -7.257 z" />
    </clipPath>
    <clipPath
       id="clipPath568"
       clipPathUnits="userSpaceOnUse">
      <path
         id="path566"
         d="m 179.158,284.123 h 5.22 v -4.139 h -5.22 z" />
    </clipPath>
    <clipPath
       id="clipPath584"
       clipPathUnits="userSpaceOnUse">
      <path
         id="path582"
         d="m 179.023,280.183 h 4.117 v -3.234 h -4.117 z" />
    </clipPath>
    <clipPath
       id="clipPath700"
       clipPathUnits="userSpaceOnUse">
      <path
         id="path698"
         d="m 255.843,246.982 h 1.361 v -5.785 h -1.361 z" />
    </clipPath>
    <clipPath
       id="clipPath716"
       clipPathUnits="userSpaceOnUse">
      <path
         id="path714"
         d="m 243.736,261.625 h 15.257 V 227.54 h -15.257 z" />
    </clipPath>
    <clipPath
       id="clipPath736"
       clipPathUnits="userSpaceOnUse">
      <path
         id="path734"
         d="m 258.461,261.568 h 6.663 v -8.089 h -6.663 z" />
    </clipPath>
    <clipPath
       id="clipPath752"
       clipPathUnits="userSpaceOnUse">
      <path
         id="path750"
         d="m 239.32,252.294 h 1.184 v -3.121 h -1.184 z" />
    </clipPath>
    <clipPath
       id="clipPath768"
       clipPathUnits="userSpaceOnUse">
      <path
         id="path766"
         d="m 267.155,252.247 h 1.184 v -3.121 h -1.184 z" />
    </clipPath>
    <clipPath
       id="clipPath788"
       clipPathUnits="userSpaceOnUse">
      <path
         id="path786"
         d="M 223.919,291.698 H 268.85 V 282.43 H 223.919 Z" />
    </clipPath>
    <clipPath
       id="clipPath804"
       clipPathUnits="userSpaceOnUse">
      <path
         id="path802"
         d="m 251.87,294.782 h 13.017 v -1.599 H 251.87 Z" />
    </clipPath>
    <clipPath
       id="clipPath820"
       clipPathUnits="userSpaceOnUse">
      <path
         id="path818"
         d="m 242.532,296.185 h 20.976 v -5.323 h -20.976 z" />
    </clipPath>
    <clipPath
       id="clipPath836"
       clipPathUnits="userSpaceOnUse">
      <path
         id="path834"
         d="m 252.094,299.934 h 9.695 v -1.608 h -9.695 z" />
    </clipPath>
    <clipPath
       id="clipPath852"
       clipPathUnits="userSpaceOnUse">
      <path
         id="path850"
         d="m 221.551,271.104 h 16.643 v -3.479 h -16.643 z" />
    </clipPath>
    <clipPath
       id="clipPath868"
       clipPathUnits="userSpaceOnUse">
      <path
         id="path866"
         d="m 229.661,279.683 h 19.343 v -3.317 h -19.343 z" />
    </clipPath>
    <clipPath
       id="clipPath884"
       clipPathUnits="userSpaceOnUse">
      <path
         id="path882"
         d="m 230.629,284.929 h 23.841 v -6.673 h -23.841 z" />
    </clipPath>
    <clipPath
       id="clipPath900"
       clipPathUnits="userSpaceOnUse">
      <path
         id="path898"
         d="m 246.563,287.477 h 10.155 v -2.655 h -10.155 z" />
    </clipPath>
    <clipPath
       id="clipPath916"
       clipPathUnits="userSpaceOnUse">
      <path
         id="path914"
         d="m 248.169,289.684 h 19.628 v -4.128 h -19.628 z" />
    </clipPath>
    <clipPath
       id="clipPath932"
       clipPathUnits="userSpaceOnUse">
      <path
         id="path930"
         d="m 275.472,288.489 h 2.588 v -2.034 h -2.588 z" />
    </clipPath>
    <clipPath
       id="clipPath948"
       clipPathUnits="userSpaceOnUse">
      <path
         id="path946"
         d="m 273.124,283.325 h 4.978 v -4.409 h -4.978 z" />
    </clipPath>
    <clipPath
       id="clipPath964"
       clipPathUnits="userSpaceOnUse">
      <path
         id="path962"
         d="m 272.861,281.301 h 3.926 v -3.456 h -3.926 z" />
    </clipPath>
    <clipPath
       id="clipPath1018"
       clipPathUnits="userSpaceOnUse">
      <path
         id="path1016"
         d="M 0,91.9004 H 100 V 8.09961 H 0 Z" />
    </clipPath>
    <pattern
       id="pattern1060"
       height="100"
       width="100"
       y="0"
       x="0"
       patternUnits="userSpaceOnUse"
       patternTransform="matrix(0.194285,0,0,0.194285,-6421.85,6889.49)">
      <path
         id="path1020"
         style="fill:#0a0a0a;fill-opacity:1;fill-rule:nonzero;stroke:none"
         d="m 39.269,0 -3.305,0 0,100 3.305,0 0,-100 z" />
      <path
         id="path1022"
         style="fill:#0a0a0a;fill-opacity:0.5;fill-rule:nonzero;stroke:none"
         d="m 42.367,0 -9.501,0 0,100 9.501,0 0,-100 z" />
      <path
         id="path1024"
         style="fill:#0a0a0a;fill-opacity:1;fill-rule:nonzero;stroke:none"
         d="m 14.502,0 -3.305,0 0,100 3.305,0 0,-100 z" />
      <path
         id="path1026"
         style="fill:#0a0a0a;fill-opacity:0.5;fill-rule:nonzero;stroke:none"
         d="M 17.601,0 8.1,0 l 0,100 9.501,0 0,-100 z" />
      <path
         id="path1028"
         style="fill:#0a0a0a;fill-opacity:1;fill-rule:nonzero;stroke:none"
         d="m 64.036,0 -3.305,0 0,100 3.305,0 0,-100 z" />
      <path
         id="path1030"
         style="fill:#0a0a0a;fill-opacity:0.5;fill-rule:nonzero;stroke:none"
         d="m 67.134,0 -9.501,0 0,100 9.501,0 0,-100 z" />
      <path
         id="path1032"
         style="fill:#0a0a0a;fill-opacity:1;fill-rule:nonzero;stroke:none"
         d="m 88.802,0 -3.305,0 0,100 3.305,0 0,-100 z" />
      <path
         id="path1034"
         style="fill:#0a0a0a;fill-opacity:0.5;fill-rule:nonzero;stroke:none"
         d="m 91.9,0 -9.501,0 0,100 9.501,0 0,-100 z" />
      <g
         id="g1058">
        <g
           id="g1036" />
        <g
           id="g1056">
          <g
             id="g1054"
             opacity="0.5"
             clip-path="url(#clipPath1018)">
            <path
               id="path1038"
               style="fill:#0a0a0a;fill-opacity:1;fill-rule:nonzero;stroke:none"
               d="m 0,64.035 100,0 0,-3.305 -100,0 0,3.305 z" />
            <path
               id="path1040"
               style="fill:#0a0a0a;fill-opacity:0.5;fill-rule:nonzero;stroke:none"
               d="m 0,67.134 100,0 0,-9.501 -100,0 0,9.501 z" />
            <path
               id="path1042"
               style="fill:#0a0a0a;fill-opacity:1;fill-rule:nonzero;stroke:none"
               d="m 0,88.803 100,0 0,-3.305 -100,0 0,3.305 z" />
            <path
               id="path1044"
               style="fill:#0a0a0a;fill-opacity:0.5;fill-rule:nonzero;stroke:none"
               d="m 0,91.9 100,0 0,-9.501 -100,0 0,9.501 z" />
            <path
               id="path1046"
               style="fill:#0a0a0a;fill-opacity:1;fill-rule:nonzero;stroke:none"
               d="m 0,39.27 100,0 0,-3.305 -100,0 0,3.305 z" />
            <path
               id="path1048"
               style="fill:#0a0a0a;fill-opacity:0.5;fill-rule:nonzero;stroke:none"
               d="m 0,42.367 100,0 0,-9.501 -100,0 0,9.501 z" />
            <path
               id="path1050"
               style="fill:#0a0a0a;fill-opacity:1;fill-rule:nonzero;stroke:none"
               d="m 0,14.502 100,0 0,-3.305 -100,0 0,3.305 z" />
            <path
               id="path1052"
               style="fill:#0a0a0a;fill-opacity:0.5;fill-rule:nonzero;stroke:none"
               d="m 0,17.601 100,0 0,-9.501 -100,0 0,9.501 z" />
          </g>
        </g>
      </g>
    </pattern>
    <clipPath
       id="clipPath1088"
       clipPathUnits="userSpaceOnUse">
      <path
         id="path1086"
         d="M 0,91.9004 H 100 V 8.09961 H 0 Z" />
    </clipPath>
    <pattern
       id="pattern1130"
       height="100"
       width="100"
       y="0"
       x="0"
       patternUnits="userSpaceOnUse"
       patternTransform="matrix(0.192395,-0.0270393,0.0270393,0.192395,-6558.46,6732.26)">
      <path
         id="path1090"
         style="fill:#0a0a0a;fill-opacity:1;fill-rule:nonzero;stroke:none"
         d="m 39.269,0 -3.305,0 0,100 3.305,0 0,-100 z" />
      <path
         id="path1092"
         style="fill:#0a0a0a;fill-opacity:0.5;fill-rule:nonzero;stroke:none"
         d="m 42.367,0 -9.501,0 0,100 9.501,0 0,-100 z" />
      <path
         id="path1094"
         style="fill:#0a0a0a;fill-opacity:1;fill-rule:nonzero;stroke:none"
         d="m 14.502,0 -3.305,0 0,100 3.305,0 0,-100 z" />
      <path
         id="path1096"
         style="fill:#0a0a0a;fill-opacity:0.5;fill-rule:nonzero;stroke:none"
         d="M 17.601,0 8.1,0 l 0,100 9.501,0 0,-100 z" />
      <path
         id="path1098"
         style="fill:#0a0a0a;fill-opacity:1;fill-rule:nonzero;stroke:none"
         d="m 64.036,0 -3.305,0 0,100 3.305,0 0,-100 z" />
      <path
         id="path1100"
         style="fill:#0a0a0a;fill-opacity:0.5;fill-rule:nonzero;stroke:none"
         d="m 67.134,0 -9.501,0 0,100 9.501,0 0,-100 z" />
      <path
         id="path1102"
         style="fill:#0a0a0a;fill-opacity:1;fill-rule:nonzero;stroke:none"
         d="m 88.802,0 -3.305,0 0,100 3.305,0 0,-100 z" />
      <path
         id="path1104"
         style="fill:#0a0a0a;fill-opacity:0.5;fill-rule:nonzero;stroke:none"
         d="m 91.9,0 -9.501,0 0,100 9.501,0 0,-100 z" />
      <g
         id="g1128">
        <g
           id="g1106" />
        <g
           id="g1126">
          <g
             id="g1124"
             opacity="0.5"
             clip-path="url(#clipPath1088)">
            <path
               id="path1108"
               style="fill:#0a0a0a;fill-opacity:1;fill-rule:nonzero;stroke:none"
               d="m 0,64.035 100,0 0,-3.305 -100,0 0,3.305 z" />
            <path
               id="path1110"
               style="fill:#0a0a0a;fill-opacity:0.5;fill-rule:nonzero;stroke:none"
               d="m 0,67.134 100,0 0,-9.501 -100,0 0,9.501 z" />
            <path
               id="path1112"
               style="fill:#0a0a0a;fill-opacity:1;fill-rule:nonzero;stroke:none"
               d="m 0,88.803 100,0 0,-3.305 -100,0 0,3.305 z" />
            <path
               id="path1114"
               style="fill:#0a0a0a;fill-opacity:0.5;fill-rule:nonzero;stroke:none"
               d="m 0,91.9 100,0 0,-9.501 -100,0 0,9.501 z" />
            <path
               id="path1116"
               style="fill:#0a0a0a;fill-opacity:1;fill-rule:nonzero;stroke:none"
               d="m 0,39.27 100,0 0,-3.305 -100,0 0,3.305 z" />
            <path
               id="path1118"
               style="fill:#0a0a0a;fill-opacity:0.5;fill-rule:nonzero;stroke:none"
               d="m 0,42.367 100,0 0,-9.501 -100,0 0,9.501 z" />
            <path
               id="path1120"
               style="fill:#0a0a0a;fill-opacity:1;fill-rule:nonzero;stroke:none"
               d="m 0,14.502 100,0 0,-3.305 -100,0 0,3.305 z" />
            <path
               id="path1122"
               style="fill:#0a0a0a;fill-opacity:0.5;fill-rule:nonzero;stroke:none"
               d="m 0,17.601 100,0 0,-9.501 -100,0 0,9.501 z" />
          </g>
        </g>
      </g>
    </pattern>
    <clipPath
       id="clipPath1204"
       clipPathUnits="userSpaceOnUse">
      <path
         id="path1202"
         d="m 353.422,265.866 h 6.663 v -8.09 h -6.663 z" />
    </clipPath>
    <clipPath
       id="clipPath1228"
       clipPathUnits="userSpaceOnUse">
      <path
         id="path1226"
         d="m 350.804,251.28 h 1.36 v -5.785 h -1.36 z" />
    </clipPath>
    <clipPath
       id="clipPath1244"
       clipPathUnits="userSpaceOnUse">
      <path
         id="path1242"
         d="m 338.697,265.923 h 15.256 v -34.085 h -15.256 z" />
    </clipPath>
    <clipPath
       id="clipPath1264"
       clipPathUnits="userSpaceOnUse">
      <path
         id="path1262"
         d="m 334.28,256.592 h 1.185 v -3.122 h -1.185 z" />
    </clipPath>
    <clipPath
       id="clipPath1280"
       clipPathUnits="userSpaceOnUse">
      <path
         id="path1278"
         d="m 362.115,256.545 h 1.185 v -3.122 h -1.185 z" />
    </clipPath>
    <clipPath
       id="clipPath1300"
       clipPathUnits="userSpaceOnUse">
      <path
         id="path1298"
         d="m 325.344,292.616 h 41.384 v -18.071 h -41.384 z" />
    </clipPath>
    <clipPath
       id="clipPath1316"
       clipPathUnits="userSpaceOnUse">
      <path
         id="path1314"
         d="m 325.756,290.319 h 11.005 v -6.987 h -11.005 z" />
    </clipPath>
    <clipPath
       id="clipPath1332"
       clipPathUnits="userSpaceOnUse">
      <path
         id="path1330"
         d="m 326.092,292.364 h 20.289 v -6.815 h -20.289 z" />
    </clipPath>
    <clipPath
       id="clipPath1348"
       clipPathUnits="userSpaceOnUse">
      <path
         id="path1346"
         d="m 325.936,293.057 h 8.224 v -5.156 h -8.224 z" />
    </clipPath>
    <clipPath
       id="clipPath1364"
       clipPathUnits="userSpaceOnUse">
      <path
         id="path1362"
         d="m 363.536,290.607 h 11.44 v -12.269 h -11.44 z" />
    </clipPath>
    <clipPath
       id="clipPath1380"
       clipPathUnits="userSpaceOnUse">
      <path
         id="path1378"
         d="m 350.253,288.337 h 14.011 v -13.741 h -14.011 z" />
    </clipPath>
    <clipPath
       id="clipPath1396"
       clipPathUnits="userSpaceOnUse">
      <path
         id="path1394"
         d="m 342.8,288.659 h 19.366 V 273.235 H 342.8 Z" />
    </clipPath>
    <clipPath
       id="clipPath1412"
       clipPathUnits="userSpaceOnUse">
      <path
         id="path1410"
         d="m 339.419,279.583 h 8.096 v -6.68 h -8.096 z" />
    </clipPath>
    <clipPath
       id="clipPath1428"
       clipPathUnits="userSpaceOnUse">
      <path
         id="path1426"
         d="m 326.957,286.08 h 15.627 v -12.256 h -15.627 z" />
    </clipPath>
    <clipPath
       id="clipPath1444"
       clipPathUnits="userSpaceOnUse">
      <path
         id="path1442"
         d="m 311.898,280.502 h 5.603 v -5.867 h -5.603 z" />
    </clipPath>
    <clipPath
       id="clipPath1460"
       clipPathUnits="userSpaceOnUse">
      <path
         id="path1458"
         d="m 314.597,279.232 h 2.375 v -2.278 h -2.375 z" />
    </clipPath>
    <clipPath
       id="clipPath1476"
       clipPathUnits="userSpaceOnUse">
      <path
         id="path1474"
         d="m 313.075,278.71 h 6.295 v -6.592 h -6.295 z" />
    </clipPath>
    <clipPath
       id="clipPath1492"
       clipPathUnits="userSpaceOnUse">
      <path
         id="path1490"
         d="m 314.295,276.391 h 4.54 v -4.84 h -4.54 z" />
    </clipPath>
    <clipPath
       id="clipPath1508"
       clipPathUnits="userSpaceOnUse">
      <path
         id="path1506"
         d="m 315.997,272.55 h 3.584 v -3.801 h -3.584 z" />
    </clipPath>
    <clipPath
       id="clipPath1620"
       clipPathUnits="userSpaceOnUse">
      <path
         id="path1618"
         d="m 444.307,248.414 h 1.36 v -5.784 h -1.36 z" />
    </clipPath>
    <clipPath
       id="clipPath1636"
       clipPathUnits="userSpaceOnUse">
      <path
         id="path1634"
         d="m 432.2,263.058 h 15.256 V 228.973 H 432.2 Z" />
    </clipPath>
    <clipPath
       id="clipPath1656"
       clipPathUnits="userSpaceOnUse">
      <path
         id="path1654"
         d="m 446.925,263 h 6.663 v -8.089 h -6.663 z" />
    </clipPath>
    <clipPath
       id="clipPath1672"
       clipPathUnits="userSpaceOnUse">
      <path
         id="path1670"
         d="m 427.783,253.727 h 1.184 v -3.122 h -1.184 z" />
    </clipPath>
    <clipPath
       id="clipPath1688"
       clipPathUnits="userSpaceOnUse">
      <path
         id="path1686"
         d="m 455.618,253.68 h 1.185 v -3.122 h -1.185 z" />
    </clipPath>
    <clipPath
       id="clipPath1728"
       clipPathUnits="userSpaceOnUse">
      <path
         id="path1726"
         d="m 418.861,294.516 h 41.384 v -18.071 h -41.384 z" />
    </clipPath>
    <clipPath
       id="clipPath1744"
       clipPathUnits="userSpaceOnUse">
      <path
         id="path1742"
         d="m 419.273,290.787 h 11.005 V 283.8 h -11.005 z" />
    </clipPath>
    <clipPath
       id="clipPath1760"
       clipPathUnits="userSpaceOnUse">
      <path
         id="path1758"
         d="m 419.608,292.832 h 20.289 v -6.815 h -20.289 z" />
    </clipPath>
    <clipPath
       id="clipPath1776"
       clipPathUnits="userSpaceOnUse">
      <path
         id="path1774"
         d="m 419.453,294.957 h 8.224 v -5.156 h -8.224 z" />
    </clipPath>
    <clipPath
       id="clipPath1792"
       clipPathUnits="userSpaceOnUse">
      <path
         id="path1790"
         d="m 457.053,292.508 h 11.439 v -12.269 h -11.439 z" />
    </clipPath>
    <clipPath
       id="clipPath1808"
       clipPathUnits="userSpaceOnUse">
      <path
         id="path1806"
         d="m 443.77,290.237 h 14.011 v -13.74 H 443.77 Z" />
    </clipPath>
    <clipPath
       id="clipPath1824"
       clipPathUnits="userSpaceOnUse">
      <path
         id="path1822"
         d="m 436.317,290.56 h 19.365 v -15.425 h -19.365 z" />
    </clipPath>
    <clipPath
       id="clipPath1840"
       clipPathUnits="userSpaceOnUse">
      <path
         id="path1838"
         d="m 432.935,281.483 h 8.097 v -6.679 h -8.097 z" />
    </clipPath>
    <clipPath
       id="clipPath1856"
       clipPathUnits="userSpaceOnUse">
      <path
         id="path1854"
         d="M 420.473,287.98 H 436.1 v -12.255 h -15.627 z" />
    </clipPath>
    <clipPath
       id="clipPath1872"
       clipPathUnits="userSpaceOnUse">
      <path
         id="path1870"
         d="m 408.114,281.133 h 2.374 v -2.279 h -2.374 z" />
    </clipPath>
    <clipPath
       id="clipPath1888"
       clipPathUnits="userSpaceOnUse">
      <path
         id="path1886"
         d="m 408.816,276.188 h 4.54 v -4.841 h -4.54 z" />
    </clipPath>
    <clipPath
       id="clipPath1904"
       clipPathUnits="userSpaceOnUse">
      <path
         id="path1902"
         d="m 410.23,274.212 h 3.571 v -3.801 h -3.571 z" />
    </clipPath>
    <clipPath
       id="clipPath2048"
       clipPathUnits="userSpaceOnUse">
      <path
         id="path2046"
         d="m 62.9101,245.549 h 1.3603 v -5.784 h -1.3603 z" />
    </clipPath>
    <clipPath
       id="clipPath2064"
       clipPathUnits="userSpaceOnUse">
      <path
         id="path2062"
         d="M 50.8032,260.193 H 66.0594 V 226.108 H 50.8032 Z" />
    </clipPath>
    <clipPath
       id="clipPath2084"
       clipPathUnits="userSpaceOnUse">
      <path
         id="path2082"
         d="m 65.528,260.135 h 6.663 v -8.089 h -6.663 z" />
    </clipPath>
    <clipPath
       id="clipPath2100"
       clipPathUnits="userSpaceOnUse">
      <path
         id="path2098"
         d="m 46.3866,250.862 h 1.1843 v -3.122 h -1.1843 z" />
    </clipPath>
    <clipPath
       id="clipPath2116"
       clipPathUnits="userSpaceOnUse">
      <path
         id="path2114"
         d="m 74.2218,250.815 h 1.1844 v -3.122 h -1.1844 z" />
    </clipPath>
    <clipPath
       id="clipPath2148"
       clipPathUnits="userSpaceOnUse">
      <path
         id="path2146"
         d="M 32.5087,294.355 H 77.6443 V 287.7 H 32.5087 Z" />
    </clipPath>
    <clipPath
       id="clipPath2164"
       clipPathUnits="userSpaceOnUse">
      <path
         id="path2162"
         d="m 61.7181,297.116 h 12.8121 v -2.741 H 61.7181 Z" />
    </clipPath>
    <clipPath
       id="clipPath2180"
       clipPathUnits="userSpaceOnUse">
      <path
         id="path2178"
         d="m 52.0641,298.493 h 21.3312 v -3.485 H 52.0641 Z" />
    </clipPath>
    <clipPath
       id="clipPath2196"
       clipPathUnits="userSpaceOnUse">
      <path
         id="path2194"
         d="m 62.584,302.263 h 9.5506 V 299.88 H 62.584 Z" />
    </clipPath>
    <clipPath
       id="clipPath2212"
       clipPathUnits="userSpaceOnUse">
      <path
         id="path2210"
         d="m 29.1868,278.349 h 16.5644 v -3.834 H 29.1868 Z" />
    </clipPath>
    <clipPath
       id="clipPath2228"
       clipPathUnits="userSpaceOnUse">
      <path
         id="path2226"
         d="m 36.3852,286.052 h 18.1121 v -7.555 H 36.3852 Z" />
    </clipPath>
    <clipPath
       id="clipPath2244"
       clipPathUnits="userSpaceOnUse">
      <path
         id="path2242"
         d="m 38.2141,287.13 h 23.7085 v -7.215 H 38.2141 Z" />
    </clipPath>
    <clipPath
       id="clipPath2260"
       clipPathUnits="userSpaceOnUse">
      <path
         id="path2258"
         d="m 55.1873,284.144 h 9.9983 v -3.325 h -9.9983 z" />
    </clipPath>
    <clipPath
       id="clipPath2276"
       clipPathUnits="userSpaceOnUse">
      <path
         id="path2274"
         d="m 57.3537,292.326 h 19.0608 v -5.894 H 57.3537 Z" />
    </clipPath>
    <clipPath
       id="clipPath2292"
       clipPathUnits="userSpaceOnUse">
      <path
         id="path2290"
         d="m 83.677,289.565 h 3.0507 v -1.368 H 83.677 Z" />
    </clipPath>
    <clipPath
       id="clipPath2308"
       clipPathUnits="userSpaceOnUse">
      <path
         id="path2306"
         d="m 82.9122,284.04 h 5.9515 v -3.074 h -5.9515 z" />
    </clipPath>
    <clipPath
       id="clipPath2324"
       clipPathUnits="userSpaceOnUse">
      <path
         id="path2322"
         d="m 83.1804,281.923 h 4.7182 v -2.351 h -4.7182 z" />
    </clipPath>
    <clipPath
       id="clipPath2352"
       clipPathUnits="userSpaceOnUse">
      <path
         id="path2350"
         d="M 0,500 H 500 V 0 H 0 Z" />
    </clipPath>
  </defs>
  <sodipodi:namedview
     id="base"
     pagecolor="#ffffff"
     bordercolor="#666666"
     borderopacity="1.0"
     inkscape:pageopacity="0.0"
     inkscape:pageshadow="2"
     inkscape:zoom="0.35"
     inkscape:cx="-689.58515"
     inkscape:cy="382.15398"
     inkscape:document-units="mm"
     inkscape:current-layer="layer1"
     inkscape:document-rotation="0"
     showgrid="false"
     inkscape:window-width="1274"
     inkscape:window-height="728"
     inkscape:window-x="76"
     inkscape:window-y="0"
     inkscape:window-maximized="0" />
  <metadata
     id="metadata5">
    <rdf:RDF>
      <cc:Work
         rdf:about="">
        <dc:format>image/svg+xml</dc:format>
        <dc:type
           rdf:resource="http://purl.org/dc/dcmitype/StillImage" />
        <dc:title />
      </cc:Work>
    </rdf:RDF>
  </metadata>
  <g
     inkscape:label="Layer 1"
     inkscape:groupmode="layer"
     id="layer1">
    <g
       id="g6620"
       transform="matrix(3.2975737,0,0,3.2975737,-281.09818,-382.96278)">
      <g
         transform="matrix(0.35277777,0,0,-0.35277777,127.59614,143.24191)"
         id="g594">
        <path
           id="path596"
           style="fill:#e8b785;fill-opacity:1;fill-rule:nonzero;stroke:none"
           d="M 0,0 C 0,0 1.126,2.595 3.307,1.118 5.488,-0.358 2.972,-6.223 -0.399,-6.327 Z" />
      </g>
      <g
         transform="matrix(0.35277777,0,0,-0.35277777,106.10983,143.69153)"
         id="g598">
        <path
           id="path600"
           style="fill:#fcd7ad;fill-opacity:1;fill-rule:nonzero;stroke:none"
           d="M 0,0 C 1.237,1.837 2.812,0.726 3.29,0.318 L 2.907,3.936 c 0,0 0.537,14.852 1.611,15.925 1.073,1.074 14.493,5.547 15.567,6.084 1.073,0.536 22.064,3.773 24.39,2.879 2.326,-0.895 12.09,-3.4 12.627,-3.758 0.537,-0.357 4.763,-8.515 4.763,-8.515 0,0 -7.247,-116.215 -8.32,-124.536 0,0 -5.905,-2.952 -9.931,0 0,0 -1.879,11.81 -8.32,17.446 0,0 -8.321,-7.187 -9.394,-18.758 0,0 -6.531,-2.296 -11.004,0 L 4.161,-7.903 C -0.069,-7.652 -1.46,-2.169 0,0" />
      </g>
      <g
         transform="matrix(0.35277777,0,0,-0.35277777,108.22212,152.56558)"
         id="g602">
        <path
           id="path604"
           style="fill:#dbdbda;fill-opacity:1;fill-rule:nonzero;stroke:none"
           d="m 0,0 c 0,0 10.34,-11.616 29.664,-14.479 0,0 13.667,2.768 23.511,13.444 l -2.991,-45.921 c 0,0 -5.758,-7.066 -19.625,-8.05 -13.867,-0.985 -25.325,5.565 -25.325,5.565 l -2.958,25.415 c 0,0 -3.664,-2.968 -3.432,-13.445 0.26,-11.817 5.322,-15.478 5.322,-15.478 l -2.147,-5.099 c 0,0 -9.368,6.09 -10.288,22.277 -0.895,15.745 9.087,28.047 9.087,28.047 z" />
      </g>
      <g
         transform="matrix(0.35277777,0,0,-0.35277777,120.46668,159.82307)"
         id="g606">
        <path
           id="path608"
           style="fill:#00907f;fill-opacity:1;fill-rule:nonzero;stroke:none"
           d="m 0,0 -2.048,-5.805 c 0,0 -3.265,-0.716 -5.234,0 l -2.266,5.572 4.503,5.141 z" />
      </g>
      <g
         transform="matrix(0.35277777,0,0,-0.35277777,119.75724,161.83418)"
         id="g610">
        <path
           id="path612"
           style="fill:#006c61;fill-opacity:1;fill-rule:nonzero;stroke:none"
           d="M 0,0 4.056,-21.061 -2.05,-27.436 -9.43,-21.397 -5.313,0 c 0,0 1.999,-0.699 5.313,0" />
      </g>
      <g
         transform="matrix(0.35277777,0,0,-0.35277777,115.25386,182.19031)"
         id="g614">
        <path
           id="path616"
           style="fill:#595a5a;fill-opacity:1;fill-rule:nonzero;stroke:none"
           d="m 0,0 c 0,0 -2.276,-0.979 -6.148,-0.979 0,0 -3.131,0.009 -4.809,0.962 l -0.169,0.808 c 0,0 -1.733,-0.406 -1.285,-2.866 0.448,-2.46 3.109,-3.154 6.666,-3.266 3.452,-0.107 5.949,1.209 6.396,2.774 C 1.098,-1.002 0,0 0,0" />
      </g>
      <g
         transform="matrix(0.35277777,0,0,-0.35277777,125.01007,181.69706)"
         id="g618">
        <path
           id="path620"
           style="fill:#595a5a;fill-opacity:1;fill-rule:nonzero;stroke:none"
           d="m 0,0 c 0,0 0.505,0.005 0.73,-0.767 0.373,-1.287 -0.202,-2.774 -0.202,-2.774 0,0 -0.179,-0.558 -1.208,-0.916 -0.835,-0.291 -2.549,-0.805 -4.66,-0.686 -1.58,0.089 -4.123,0.379 -4.689,2.676 -0.373,1.519 -0.129,2.353 0.068,2.215 0.196,-0.139 0.102,-0.074 0.102,-0.074 0,0 1.648,-1.425 4.729,-1.228 2.768,0.177 5.099,1.302 5.099,1.302 z" />
      </g>
      <g
         transform="matrix(0.35277777,0,0,-0.35277777,111.35302,184.25967)"
         id="g622">
        <path
           id="path624"
           style="fill:#595a5a;fill-opacity:1;fill-rule:nonzero;stroke:none"
           d="m 0,0 c -0.029,0.147 0.872,0.201 1.442,-0.806 0.571,-1.006 0.772,-2.449 2.449,-2.382 1.678,0.068 2.081,1.476 2.986,1.946 0.906,0.47 0.973,0.168 0.94,-0.536 C 7.783,-2.483 7.415,-2.651 7.482,-3.993 7.548,-5.335 7.649,-5.972 7.112,-6.475 6.576,-6.979 6.297,-6.744 5.212,-7.214 4.126,-7.683 1.845,-8.757 0.301,-9.931 c -1.543,-1.174 -5.736,-1.006 -6.541,1.476 -0.806,2.483 1.107,3.758 2.885,4.127 C -1.577,-3.959 0.335,-1.678 0,0" />
      </g>
      <g
         transform="matrix(0.35277777,0,0,-0.35277777,125.07819,183.5243)"
         id="g626">
        <path
           id="path628"
           style="fill:#595a5a;fill-opacity:1;fill-rule:nonzero;stroke:none"
           d="m 0,0 c 0.029,0.148 -0.872,0.201 -1.443,-0.805 -0.57,-1.007 -0.771,-2.449 -2.449,-2.382 -1.677,0.067 -2.08,1.476 -2.986,1.945 -0.905,0.471 -0.973,0.168 -0.939,-0.536 0.034,-0.704 0.403,-0.872 0.335,-2.215 -0.066,-1.341 -0.167,-1.979 0.37,-2.482 0.536,-0.503 0.814,-0.269 1.899,-0.738 1.086,-0.47 3.368,-1.543 4.911,-2.718 1.543,-1.174 5.737,-1.006 6.542,1.476 0.806,2.483 -1.107,3.758 -2.885,4.127 C 1.577,-3.959 -0.335,-1.677 0,0" />
      </g>
      <g
         transform="matrix(0.35277777,0,0,-0.35277777,111.984,183.92407)"
         id="g630">
        <path
           id="path632"
           style="fill:#fcd7ad;fill-opacity:1;fill-rule:nonzero;stroke:none"
           d="m 0,0 -0.09,-2.274 c 0,0 0.415,-1.783 2.042,-1.866 1.627,-0.083 2.319,1.357 2.728,1.652 l 0.409,0.295 0.233,1.845 C 5.322,-0.348 2.741,-0.651 0,0" />
      </g>
      <g
         transform="matrix(0.35277777,0,0,-0.35277777,124.48683,183.3585)"
         id="g634">
        <path
           id="path636"
           style="fill:#fcd7ad;fill-opacity:1;fill-rule:nonzero;stroke:none"
           d="m 0,0 0.063,-1.606 c 0,0 -0.536,-1.961 -2.033,-2.07 -1.434,-0.103 -2.248,1.172 -2.714,1.569 -0.384,0.327 -0.461,0.324 -0.461,0.324 v 1.477 c 0,0 2.292,-0.47 5.145,0.306" />
      </g>
      <g
         transform="matrix(0.35277777,0,0,-0.35277777,110.21376,171.00411)"
         id="g638">
        <path
           id="path640"
           style="fill:#404041;fill-opacity:1;fill-rule:nonzero;stroke:none"
           d="m 0,0 c 0,0 6.048,-2.119 23.595,-1.918 0,0 15.006,-5.094 20.655,2.927 l -1.251,-19.2 -1.065,-12.429 c 0,0 -1.412,-1.469 -5.022,-1.497 -1.567,-0.011 -3.309,0.305 -4.931,1.554 0,0 -2.214,12.111 -8.32,17.446 0,0 -7.245,-6.212 -9.394,-18.758 0,0 -6.441,-2.118 -11.004,0 l -1.461,11.829 z" />
      </g>
      <g
         transform="matrix(0.35277777,0,0,-0.35277777,128.15985,133.31083)"
         id="g642">
        <path
           id="path644"
           style="fill:#d76527;fill-opacity:1;fill-rule:nonzero;stroke:none"
           d="M 0,0 C -0.214,2.774 -1.652,5.328 -3.944,6.905 -4.215,7.091 -4.373,7.179 -4.373,7.179 -2.763,7.805 -1.024,7 -1.024,7 c -1.482,1.611 -4.78,1.253 -4.78,1.253 l -0.179,2.773 -1.029,-2.281 c -3.758,10.199 -12.183,11.541 -12.183,11.541 2.579,-0.805 4.265,-5.905 4.265,-5.905 -4.294,3.355 -17.446,6.442 -29.32,-2.013 -11.875,-8.454 -17.783,-2.55 -17.783,-2.55 1.342,-3.086 5.517,-4.965 5.517,-4.965 -1.004,-0.876 -1.89,-1.799 -2.673,-2.758 h 0.144 c -3.82,-11.55 -0.699,-23.973 0.618,-38.142 0.706,-1.497 0.576,1.858 0.576,1.858 1.986,2.818 0.534,16.007 0.534,16.007 15.452,-1.476 24.068,12.883 24.068,12.883 -2.081,-3.623 -2.013,-6.978 -2.013,-6.978 3.286,5.905 10.402,10.199 10.402,10.199 -3.758,-2.684 -5.064,-8.186 -5.064,-8.186 12.113,14.493 18.973,3.074 18.973,3.074 10.957,3.073 9.386,-20.446 9.386,-20.446 0.453,1.005 1.356,13.683 1.553,14.928 C 0.362,-7.375 0.388,-5.041 0,0" />
      </g>
      <g
         transform="matrix(0.35277777,0,0,-0.35277777,125.79726,171.00411)"
         id="g646">
        <path
           id="path648"
           style="fill:#d5d8d8;fill-opacity:1;fill-rule:nonzero;stroke:none"
           d="m 0,0 0.059,-0.078 5.149,-6.442 -3.813,-0.492 -0.688,1.117 -0.99,1.606 0.212,3.115 z" />
      </g>
      <g
         transform="matrix(0.35277777,0,0,-0.35277777,125.64387,173.30049)"
         id="g650">
        <path
           id="path652"
           style="fill:#e1b890;fill-opacity:1;fill-rule:nonzero;stroke:none"
           d="M 0,0 C 0,0 0.806,0.212 1.142,0.614 L 0.152,2.221 Z" />
      </g>
      <g
         transform="matrix(0.35277777,0,0,-0.35277777,126.84564,154.42617)"
         id="g654">
        <path
           id="path656"
           style="fill:#dbdbda;fill-opacity:1;fill-rule:nonzero;stroke:none"
           d="m 0,0 -1.096,-16.317 c 9.211,-14.885 -1.876,-30.799 -1.876,-30.799 l 3.08,-3.69 c 0,0 7.809,6.598 8.794,20.935 C 10.323,-9.155 0,0 0,0" />
      </g>
      <g
         transform="matrix(0.35277777,0,0,-0.35277777,112.90665,155.86727)"
         id="g658">
        <path
           id="path660"
           style="fill:#808080;fill-opacity:1;fill-rule:nonzero;stroke:none"
           d="m 0,0 c 0,0 5.67,-19.194 16.385,-26.575 0,0 13.204,14.346 13.508,26.835 0,0 6.952,4.175 10.112,8.201 l -3.406,-51.447 -13.124,-10.579 -7.648,6.844 -7.852,-6.844 -15.608,9.6 -3.67,31.078 -1.976,22.246 c 0,0 4.123,-4.666 13.279,-9.359" />
      </g>
      <g
         transform="matrix(0.35277777,0,0,-0.35277777,112.90665,155.86727)"
         id="g662">
        <path
           id="path664"
           style="fill:#e2e5e5;fill-opacity:1;fill-rule:nonzero;stroke:none"
           d="m 0,0 c 0,0 8.429,-4.03 16.385,-5.119 0,0 4.71,0.619 13.508,5.379 0,0 0,-4.334 -1.862,-8.622 l -5.628,-3.988 -6.018,6.045 -5.926,-6.582 -6.124,2.038 c 0,0 -3.261,6.318 -4.335,10.849" />
      </g>
      <g
         transform="matrix(0.35277777,0,0,-0.35277777,110.67618,172.13427)"
         id="g666">
        <path
           id="path668"
           style="fill:#fcd7ad;fill-opacity:1;fill-rule:nonzero;stroke:none"
           d="m 0,0 c 0,0 0.655,-0.118 1.549,-0.923 0,0 1.007,-4.048 -0.939,-6.531 0,0 -1.856,0.665 -3.031,1.909 z" />
      </g>
      <g
         transform="matrix(0.35277777,0,0,-0.35277777,110.71467,172.04618)"
         id="g670">
        <path
           id="path672"
           style="fill:#d5d8d8;fill-opacity:1;fill-rule:nonzero;stroke:none"
           d="m 0,0 -2.474,3.304 -4.087,-9.687 4.031,0.589 z" />
      </g>
      <g
         transform="matrix(0.35277777,0,0,-0.35277777,113.33482,144.67504)"
         id="g674">
        <path
           id="path676"
           style="fill:#3a4d57;fill-opacity:1;fill-rule:nonzero;stroke:none"
           d="m 0,0 c 0.503,1.684 1.608,1.973 2.702,0.265 0.945,-1.473 0.307,-3.092 0.048,-4.672 0,0 -0.096,-0.356 -0.169,-0.452 C 0.943,-7.019 -0.526,-1.758 0,0" />
      </g>
      <g
         transform="matrix(0.35277777,0,0,-0.35277777,123.17376,144.67504)"
         id="g678">
        <path
           id="path680"
           style="fill:#3a4d57;fill-opacity:1;fill-rule:nonzero;stroke:none"
           d="m 0,0 c 0.503,1.684 1.608,1.973 2.702,0.265 0.948,-1.478 0.324,-3.646 0.045,-4.688 0,0 -0.157,-0.43 -0.257,-0.54 C 0.8,-6.816 -0.518,-1.732 0,0" />
      </g>
      <g
         transform="matrix(0.35277777,0,0,-0.35277777,122.67299,140.95168)"
         id="g682">
        <path
           id="path684"
           style="fill:#ae682c;fill-opacity:1;fill-rule:nonzero;stroke:none"
           d="M 0,0 C 0,0 0.143,0.052 0.409,0.098 0.664,0.17 1.067,0.169 1.499,0.241 1.716,0.275 1.956,0.291 2.207,0.297 2.463,0.308 2.712,0.295 2.857,0.253 2.983,0.204 3.084,0.131 3.32,0.019 3.566,-0.11 3.816,-0.242 4.066,-0.374 4.583,-0.615 5.083,-0.886 5.58,-1.102 6.067,-1.333 6.572,-1.488 6.974,-1.678 7.378,-1.863 7.777,-1.95 8.023,-2.06 c 0.269,-0.083 0.423,-0.131 0.423,-0.131 0,0 -0.076,0.143 -0.208,0.394 C 8.079,-1.576 7.893,-1.199 7.574,-0.855 7.252,-0.518 6.893,-0.084 6.426,0.272 5.971,0.646 5.425,0.954 4.874,1.248 4.586,1.378 4.31,1.498 4.007,1.612 3.708,1.735 3.243,1.846 2.805,1.768 2.389,1.705 2.113,1.534 1.878,1.401 1.643,1.258 1.42,1.123 1.215,0.998 0.807,0.757 0.533,0.44 0.319,0.28 0.118,0.094 0,0 0,0" />
      </g>
      <g
         transform="matrix(0.35277777,0,0,-0.35277777,114.76428,140.95168)"
         id="g686">
        <path
           id="path688"
           style="fill:#ae682c;fill-opacity:1;fill-rule:nonzero;stroke:none"
           d="M 0,0 C 0,0 -0.118,0.094 -0.319,0.28 -0.532,0.44 -0.807,0.757 -1.215,0.999 -1.42,1.123 -1.643,1.259 -1.878,1.402 -2.112,1.534 -2.388,1.706 -2.805,1.769 -3.243,1.847 -3.708,1.736 -4.008,1.613 -4.31,1.498 -4.586,1.378 -4.874,1.248 -5.426,0.955 -5.971,0.646 -6.427,0.273 -6.893,-0.083 -7.253,-0.518 -7.574,-0.856 -7.893,-1.199 -8.08,-1.575 -8.238,-1.797 c -0.133,-0.251 -0.208,-0.394 -0.208,-0.394 0,0 0.154,0.048 0.422,0.132 0.246,0.11 0.646,0.196 1.05,0.38 0.402,0.191 0.907,0.346 1.394,0.577 0.496,0.217 0.997,0.487 1.514,0.728 0.25,0.132 0.5,0.264 0.746,0.394 0.235,0.112 0.337,0.185 0.463,0.234 0.145,0.042 0.394,0.055 0.65,0.044 C -1.955,0.292 -1.716,0.276 -1.498,0.241 -1.067,0.169 -0.664,0.17 -0.409,0.099 -0.143,0.052 0,0 0,0" />
      </g>
      <g
         transform="matrix(0.35277777,0,0,-0.35277777,119.87952,149.07181)"
         id="g690">
        <path
           id="path692"
           style="fill:#d6b07d;fill-opacity:1;fill-rule:nonzero;stroke:none"
           d="M 0,0 C 0.001,-0.01 -0.085,0.022 -0.235,0.081 -0.384,0.113 -0.598,0.21 -0.85,0.262 -1.102,0.303 -1.396,0.396 -1.707,0.432 -2.019,0.482 -2.348,0.495 -2.678,0.513 -3.006,0.504 -3.335,0.504 -3.642,0.452 -3.95,0.418 -4.237,0.302 -4.485,0.241 -4.732,0.188 -4.94,0.04 -5.086,-0.028 c -0.146,-0.093 -0.23,-0.146 -0.23,-0.146 0,0 0.083,-0.055 0.227,-0.151 0.145,-0.07 0.353,-0.223 0.604,-0.276 0.252,-0.06 0.546,-0.171 0.862,-0.196 0.316,-0.042 0.653,-0.027 0.989,-0.015 0.335,0.041 0.67,0.081 0.981,0.162 0.312,0.069 0.598,0.194 0.845,0.269 0.246,0.084 0.446,0.211 0.588,0.265 C -0.081,-0.035 -0.001,0.01 0,0" />
      </g>
      <g
         transform="matrix(0.35277777,0,0,-0.35277777,28.978176,233.3373)"
         id="g694">
        <g
           id="g696" />
        <g
           id="g708">
          <g
             id="g706"
             clip-path="url(#clipPath700)">
            <g
               id="g704"
               transform="translate(257.1047,241.1972)">
              <path
                 id="path702"
                 style="fill:#d6b07d;fill-opacity:1;fill-rule:nonzero;stroke:none"
                 d="m 0,0 c 0,0 0.017,0.099 0.046,0.273 0.005,0.166 0.061,0.414 0.051,0.69 -0.013,0.276 0.019,0.606 -0.011,0.942 -0.015,0.34 -0.067,0.694 -0.11,1.05 -0.064,0.352 -0.118,0.706 -0.204,1.035 -0.07,0.331 -0.199,0.636 -0.269,0.903 -0.071,0.267 -0.199,0.488 -0.253,0.645 -0.08,0.157 -0.125,0.247 -0.125,0.247 0,0 -0.038,-0.094 -0.104,-0.257 C -1.019,5.365 -1.125,5.128 -1.157,4.847 -1.19,4.565 -1.26,4.232 -1.259,3.879 -1.271,3.525 -1.23,3.152 -1.188,2.779 -1.118,2.41 -1.045,2.042 -0.929,1.707 -0.824,1.37 -0.66,1.072 -0.545,0.813 -0.431,0.554 -0.261,0.358 -0.175,0.215 -0.064,0.078 0,0 0,0" />
            </g>
          </g>
        </g>
      </g>
      <g
         transform="matrix(0.35277777,0,0,-0.35277777,28.978176,233.3373)"
         id="g710">
        <g
           id="g712" />
        <g
           id="g728">
          <g
             id="g726"
             clip-path="url(#clipPath716)">
            <g
               id="g720"
               transform="translate(249.1029,252.8878)">
              <path
                 id="path718"
                 style="fill:#f6e9d7;fill-opacity:1;fill-rule:nonzero;stroke:none"
                 d="m 0,0 c 0,0 0.023,0.169 0.082,0.476 0.019,0.3 0.108,0.748 0.079,1.276 -0.03,0.525 -0.034,1.164 -0.176,1.824 -0.12,0.668 -0.378,1.346 -0.677,2.007 -0.336,0.641 -0.752,1.241 -1.225,1.732 -0.463,0.517 -1.056,0.878 -1.57,1.138 -0.519,0.274 -1.051,0.28 -1.369,0.284 -0.341,-0.041 -0.51,-0.097 -0.51,-0.097 0,0 0.167,-0.086 0.391,-0.292 0.243,-0.164 0.491,-0.505 0.777,-0.842 0.295,-0.343 0.53,-0.831 0.838,-1.31 C -3.061,5.695 -2.742,5.162 -2.424,4.629 -2.073,4.112 -1.779,3.56 -1.466,3.045 -1.174,2.522 -0.863,2.025 -0.674,1.567 -0.478,1.112 -0.278,0.725 -0.178,0.443 -0.057,0.165 0,0 0,0" />
            </g>
            <g
               id="g724"
               transform="translate(258.9927,227.5886)">
              <path
                 id="path722"
                 style="fill:#eaa560;fill-opacity:1;fill-rule:nonzero;stroke:none"
                 d="m 0,0 c 0,0 -0.719,0.653 -2.331,0.614 -2.625,-0.064 -7.015,-0.166 -7.966,0.028 -1.536,0.313 -2.878,1.432 -2.878,1.432 0,0 0.671,-1.924 3.31,-2.058 C -7.225,-0.119 0,0 0,0" />
            </g>
          </g>
        </g>
      </g>
      <g
         transform="matrix(0.35277777,0,0,-0.35277777,28.978176,233.3373)"
         id="g730">
        <g
           id="g732" />
        <g
           id="g744">
          <g
             id="g742"
             clip-path="url(#clipPath736)">
            <g
               id="g740"
               transform="translate(258.5662,253.4787)">
              <path
                 id="path738"
                 style="fill:#f6e9d7;fill-opacity:1;fill-rule:nonzero;stroke:none"
                 d="m 0,0 c 0,0 0.047,0.171 0.16,0.457 0.036,0.146 0.124,0.314 0.215,0.504 0.084,0.192 0.187,0.401 0.3,0.626 0.199,0.459 0.566,0.929 0.906,1.42 0.373,0.479 0.773,0.963 1.197,1.417 0.417,0.462 0.866,0.879 1.268,1.307 0.431,0.386 0.796,0.839 1.191,1.128 0.191,0.155 0.362,0.312 0.52,0.455 0.154,0.148 0.293,0.285 0.42,0.366 0.243,0.223 0.381,0.35 0.381,0.35 0,0 -0.189,0.022 -0.519,0.059 C 5.876,8.088 5.674,8.09 5.443,8.073 5.209,8.062 4.947,8.029 4.684,7.936 4.148,7.775 3.508,7.552 2.913,7.157 2.308,6.775 1.773,6.222 1.304,5.628 0.871,5.004 0.517,4.33 0.297,3.661 0.077,2.99 -0.016,2.34 -0.072,1.797 -0.144,1.255 -0.078,0.792 -0.055,0.484 -0.009,0.171 0,0 0,0" />
            </g>
          </g>
        </g>
      </g>
      <g
         transform="matrix(0.35277777,0,0,-0.35277777,28.978176,233.3373)"
         id="g746">
        <g
           id="g748" />
        <g
           id="g760">
          <g
             id="g758"
             clip-path="url(#clipPath752)">
            <g
               id="g756"
               transform="translate(240.4141,252.294)">
              <path
                 id="path754"
                 style="fill:#5d6670;fill-opacity:1;fill-rule:nonzero;stroke:none"
                 d="m 0,0 c 0.011,-0.005 -0.042,-0.036 -0.137,-0.092 -0.074,-0.065 -0.215,-0.146 -0.316,-0.275 -0.1,-0.129 -0.251,-0.273 -0.346,-0.453 -0.103,-0.177 -0.17,-0.382 -0.233,-0.588 -0.039,-0.211 -0.075,-0.424 -0.057,-0.629 0.002,-0.203 0.083,-0.398 0.121,-0.558 0.037,-0.16 0.136,-0.294 0.175,-0.384 0.061,-0.091 0.096,-0.142 0.096,-0.142 0,0 0.038,0.049 0.104,0.135 0.045,0.085 0.156,0.203 0.219,0.343 0.058,0.142 0.182,0.296 0.236,0.467 0.074,0.168 0.11,0.351 0.157,0.533 0.027,0.187 0.062,0.372 0.067,0.556 0.017,0.18 -0.023,0.371 -0.015,0.524 C 0.075,-0.41 0.03,-0.258 0.026,-0.162 0.002,-0.057 -0.011,0.005 0,0" />
            </g>
          </g>
        </g>
      </g>
      <g
         transform="matrix(0.35277777,0,0,-0.35277777,28.978176,233.3373)"
         id="g762">
        <g
           id="g764" />
        <g
           id="g776">
          <g
             id="g774"
             clip-path="url(#clipPath768)">
            <g
               id="g772"
               transform="translate(268.2493,252.2469)">
              <path
                 id="path770"
                 style="fill:#5d6670;fill-opacity:1;fill-rule:nonzero;stroke:none"
                 d="m 0,0 c 0.011,-0.005 -0.042,-0.036 -0.137,-0.092 -0.074,-0.065 -0.215,-0.146 -0.316,-0.275 -0.1,-0.129 -0.251,-0.273 -0.346,-0.453 -0.103,-0.177 -0.17,-0.382 -0.233,-0.588 -0.039,-0.211 -0.075,-0.424 -0.057,-0.629 0.002,-0.203 0.084,-0.398 0.121,-0.558 0.037,-0.16 0.136,-0.294 0.175,-0.384 0.061,-0.091 0.096,-0.142 0.096,-0.142 0,0 0.038,0.049 0.104,0.135 0.045,0.085 0.156,0.203 0.219,0.343 0.058,0.142 0.182,0.296 0.236,0.467 0.074,0.168 0.11,0.351 0.157,0.533 0.027,0.187 0.062,0.372 0.067,0.556 0.017,0.18 -0.023,0.371 -0.015,0.524 C 0.075,-0.41 0.03,-0.258 0.026,-0.162 0.002,-0.057 -0.011,0.005 0,0" />
            </g>
          </g>
        </g>
      </g>
      <g
         transform="matrix(0.35277777,0,0,-0.35277777,120.72248,154.42617)"
         id="g778">
        <path
           id="path780"
           style="fill:#d76527;fill-opacity:1;fill-rule:nonzero;stroke:none"
           d="m 0,0 c -4.199,-0.414 -5.499,2.731 -5.499,2.731 -2.206,-5.245 -9.46,-3.086 -10.827,0 -1.367,3.087 0.006,4.125 0.006,4.125 3.759,2.348 10.723,2.415 10.723,2.415 C -2.655,9.472 3.565,8.332 5,6.319 6.435,4.306 4.199,0.414 0,0 m 11.287,9.651 c -4.493,-0.083 -6.57,2.304 -11.989,2.84 0,0 -5.93,-1.231 -13.735,0.469 0,0 -3.617,-1.068 -7.398,-2.951 -4.256,-2.118 -8.243,1.074 -9.883,5.01 -0.731,1.755 -3.256,8.569 -4.215,13.543 -1.321,-0.133 -1.164,0 -1.552,-1.613 0.157,-1.459 0.075,-3.039 0.224,-4.423 0.36,-3.334 1.913,-18.064 1.913,-18.064 0,0 8.857,-12.838 29.616,-13.374 0,0 11.124,-1.34 23.473,9.999 0,0 0.463,10.492 0.832,16.212 0,0 -0.808,-7.528 -7.286,-7.648" />
      </g>
      <g
         transform="matrix(0.35277777,0,0,-0.35277777,28.978176,233.3373)"
         id="g782">
        <g
           id="g784" />
        <g
           id="g796">
          <g
             id="g794"
             clip-path="url(#clipPath788)">
            <g
               id="g792"
               transform="translate(268.8497,286.9738)">
              <path
                 id="path790"
                 style="fill:#3b4d57;fill-opacity:1;fill-rule:nonzero;stroke:none"
                 d="m 0,0 c 0,0 -0.028,0.037 -0.081,0.109 -0.052,0.074 -0.132,0.181 -0.244,0.314 -0.222,0.268 -0.574,0.648 -1.099,1.044 -1.053,0.792 -2.771,1.603 -4.927,2.23 -2.156,0.625 -4.777,1.085 -7.61,1.021 -2.836,-0.037 -5.825,-0.707 -8.662,-1.658 -2.832,-0.988 -5.55,-2.213 -8.084,-3.343 -2.536,-1.125 -4.9,-2.164 -7.008,-2.823 -2.102,-0.665 -3.904,-1.062 -5.188,-1.23 -0.64,-0.093 -1.15,-0.109 -1.495,-0.145 -0.347,-0.029 -0.532,-0.044 -0.532,-0.044 0,0 0.185,-0.002 0.532,-0.006 0.348,0.004 0.861,-0.029 1.512,-0.003 1.298,0.082 3.174,0.252 5.343,0.847 2.168,0.581 4.635,1.473 7.202,2.55 2.576,1.06 5.276,2.272 8.051,3.227 2.77,0.959 5.627,1.623 8.361,1.753 2.73,0.137 5.303,-0.136 7.441,-0.663 C -4.354,2.65 -2.592,2.043 -1.52,1.328 -0.973,0.99 -0.594,0.647 -0.351,0.4 -0.229,0.277 -0.142,0.176 -0.087,0.105 -0.029,0.036 0,0 0,0" />
            </g>
          </g>
        </g>
      </g>
      <g
         transform="matrix(0.35277777,0,0,-0.35277777,28.978176,233.3373)"
         id="g798">
        <g
           id="g800" />
        <g
           id="g812">
          <g
             id="g810"
             clip-path="url(#clipPath804)">
            <g
               id="g808"
               transform="translate(264.8865,293.1832)">
              <path
                 id="path806"
                 style="fill:#3b4d57;fill-opacity:1;fill-rule:nonzero;stroke:none"
                 d="M 0,0 C 0,0 -0.192,0.076 -0.529,0.208 -0.869,0.329 -1.351,0.526 -1.949,0.701 -2.544,0.886 -3.247,1.08 -4.014,1.232 -4.782,1.384 -5.611,1.487 -6.443,1.559 -7.277,1.606 -8.114,1.618 -8.896,1.56 -9.677,1.505 -10.4,1.385 -11.013,1.266 c -0.615,-0.108 -1.113,-0.281 -1.462,-0.38 -0.344,-0.12 -0.541,-0.188 -0.541,-0.188 0,0 0.208,0.003 0.572,0.008 0.36,0.024 0.879,0.011 1.49,0.035 0.612,0.033 1.327,0.01 2.086,0.022 0.761,-0.009 1.57,-0.012 2.38,-0.044 0.81,-0.025 1.619,-0.084 2.379,-0.146 0.758,-0.079 1.473,-0.136 2.08,-0.231 0.608,-0.088 1.12,-0.16 1.471,-0.236 C -0.203,0.039 0,0 0,0" />
            </g>
          </g>
        </g>
      </g>
      <g
         transform="matrix(0.35277777,0,0,-0.35277777,28.978176,233.3373)"
         id="g814">
        <g
           id="g816" />
        <g
           id="g828">
          <g
             id="g826"
             clip-path="url(#clipPath820)">
            <g
               id="g824"
               transform="translate(263.5076,294.9516)">
              <path
                 id="path822"
                 style="fill:#3b4d57;fill-opacity:1;fill-rule:nonzero;stroke:none"
                 d="m 0,0 c 0,0 -0.08,0.032 -0.23,0.091 -0.151,0.058 -0.368,0.157 -0.654,0.254 -0.569,0.203 -1.399,0.473 -2.432,0.648 -1.032,0.162 -2.259,0.282 -3.575,0.226 -1.317,-0.048 -2.707,-0.282 -4.068,-0.618 -1.353,-0.359 -2.676,-0.816 -3.873,-1.334 -1.199,-0.51 -2.268,-1.09 -3.181,-1.579 -0.913,-0.491 -1.639,-0.964 -2.159,-1.27 -0.512,-0.323 -0.804,-0.507 -0.804,-0.507 0,0 0.323,0.122 0.889,0.336 0.557,0.23 1.372,0.521 2.323,0.915 0.952,0.394 2.075,0.816 3.268,1.268 1.197,0.443 2.476,0.895 3.783,1.244 1.3,0.366 2.628,0.613 3.884,0.771 1.256,0.152 2.446,0.203 3.464,0.131 1.017,-0.064 1.868,-0.192 2.45,-0.337 0.296,-0.057 0.521,-0.13 0.677,-0.171 C -0.083,0.024 0,0 0,0" />
            </g>
          </g>
        </g>
      </g>
      <g
         transform="matrix(0.35277777,0,0,-0.35277777,28.978176,233.3373)"
         id="g830">
        <g
           id="g832" />
        <g
           id="g844">
          <g
             id="g842"
             clip-path="url(#clipPath836)">
            <g
               id="g840"
               transform="translate(261.7893,298.3262)">
              <path
                 id="path838"
                 style="fill:#3b4d57;fill-opacity:1;fill-rule:nonzero;stroke:none"
                 d="m 0,0 c 0,0 -0.134,0.082 -0.369,0.225 -0.24,0.133 -0.581,0.34 -1.02,0.52 -0.436,0.189 -0.958,0.391 -1.537,0.552 -0.58,0.156 -1.217,0.244 -1.856,0.298 C -5.424,1.622 -6.068,1.609 -6.663,1.521 -7.259,1.436 -7.801,1.281 -8.254,1.13 -8.711,0.992 -9.066,0.797 -9.315,0.679 -9.557,0.543 -9.696,0.465 -9.696,0.465 c 0,0 0.157,0.022 0.431,0.06 0.267,0.054 0.66,0.085 1.115,0.145 0.454,0.072 0.992,0.078 1.556,0.12 0.568,0.018 1.17,0.035 1.774,0.013 C -4.217,0.787 -3.616,0.725 -3.048,0.665 -2.484,0.587 -1.947,0.526 -1.5,0.408 -1.051,0.303 -0.67,0.212 -0.412,0.125 -0.15,0.046 0,0 0,0" />
            </g>
          </g>
        </g>
      </g>
      <g
         transform="matrix(0.35277777,0,0,-0.35277777,28.978176,233.3373)"
         id="g846">
        <g
           id="g848" />
        <g
           id="g860">
          <g
             id="g858"
             clip-path="url(#clipPath852)">
            <g
               id="g856"
               transform="translate(238.1943,271.1043)">
              <path
                 id="path854"
                 style="fill:#3b4d57;fill-opacity:1;fill-rule:nonzero;stroke:none"
                 d="m 0,0 c 0,0 -0.242,-0.123 -0.665,-0.337 -0.206,-0.116 -0.474,-0.224 -0.778,-0.349 -0.301,-0.132 -0.644,-0.27 -1.024,-0.406 -0.743,-0.309 -1.65,-0.554 -2.612,-0.811 -0.971,-0.231 -2.014,-0.425 -3.067,-0.546 -1.052,-0.12 -2.11,-0.163 -3.104,-0.166 -0.991,0.029 -1.927,0.038 -2.72,0.151 -0.399,0.042 -0.764,0.088 -1.089,0.133 -0.327,0.038 -0.613,0.071 -0.843,0.124 -0.472,0.072 -0.742,0.113 -0.742,0.113 0,0 0.249,-0.112 0.686,-0.309 0.221,-0.094 0.492,-0.198 0.809,-0.305 0.316,-0.116 0.676,-0.232 1.08,-0.315 0.801,-0.197 1.757,-0.363 2.792,-0.432 1.035,-0.06 2.144,-0.005 3.242,0.125 1.094,0.169 2.174,0.416 3.155,0.744 0.977,0.34 1.858,0.732 2.583,1.119 0.367,0.185 0.688,0.383 0.967,0.565 0.283,0.175 0.523,0.338 0.717,0.476 C -0.223,-0.155 0,0 0,0" />
            </g>
          </g>
        </g>
      </g>
      <g
         transform="matrix(0.35277777,0,0,-0.35277777,28.978176,233.3373)"
         id="g862">
        <g
           id="g864" />
        <g
           id="g876">
          <g
             id="g874"
             clip-path="url(#clipPath868)">
            <g
               id="g872"
               transform="translate(249.0035,279.6832)">
              <path
                 id="path870"
                 style="fill:#3b4d57;fill-opacity:1;fill-rule:nonzero;stroke:none"
                 d="m 0,0 c 0,0 -0.293,-0.097 -0.804,-0.266 -0.252,-0.096 -0.57,-0.172 -0.934,-0.26 -0.361,-0.098 -0.77,-0.192 -1.222,-0.275 -0.896,-0.199 -1.964,-0.303 -3.101,-0.434 -1.142,-0.107 -2.364,-0.195 -3.591,-0.27 -1.227,-0.087 -2.46,-0.171 -3.614,-0.305 -1.153,-0.138 -2.226,-0.325 -3.134,-0.539 -0.456,-0.092 -0.867,-0.212 -1.227,-0.331 -0.362,-0.112 -0.674,-0.218 -0.926,-0.319 -0.502,-0.202 -0.789,-0.318 -0.789,-0.318 0,0 0.302,0.063 0.831,0.172 0.259,0.07 0.583,0.121 0.953,0.176 0.368,0.065 0.783,0.13 1.238,0.191 0.905,0.148 1.976,0.214 3.117,0.318 1.15,0.081 2.375,0.168 3.601,0.256 1.229,0.104 2.463,0.217 3.613,0.394 1.151,0.179 2.215,0.419 3.107,0.688 0.45,0.119 0.853,0.261 1.205,0.401 0.356,0.129 0.659,0.253 0.904,0.37 C -0.281,-0.128 0,0 0,0" />
            </g>
          </g>
        </g>
      </g>
      <g
         transform="matrix(0.35277777,0,0,-0.35277777,28.978176,233.3373)"
         id="g878">
        <g
           id="g880" />
        <g
           id="g892">
          <g
             id="g890"
             clip-path="url(#clipPath884)">
            <g
               id="g888"
               transform="translate(254.4698,284.9287)">
              <path
                 id="path886"
                 style="fill:#3b4d57;fill-opacity:1;fill-rule:nonzero;stroke:none"
                 d="m 0,0 c 0,0 -0.314,-0.237 -0.918,-0.555 -0.595,-0.333 -1.498,-0.7 -2.608,-1.026 -1.112,-0.33 -2.449,-0.54 -3.892,-0.688 -1.457,-0.13 -3.011,-0.268 -4.564,-0.407 -1.566,-0.171 -3.137,-0.436 -4.568,-0.826 -1.436,-0.375 -2.726,-0.888 -3.814,-1.344 -1.091,-0.459 -1.949,-0.946 -2.551,-1.275 -0.59,-0.351 -0.926,-0.551 -0.926,-0.551 0,0 0.357,0.16 0.998,0.401 0.632,0.26 1.556,0.575 2.66,0.942 1.103,0.375 2.421,0.701 3.83,1.022 1.413,0.319 2.929,0.581 4.47,0.749 1.538,0.194 3.104,0.319 4.562,0.577 1.462,0.242 2.807,0.614 3.918,1.028 1.117,0.411 1.968,0.931 2.539,1.309 C -0.299,-0.252 0,0 0,0" />
            </g>
          </g>
        </g>
      </g>
      <g
         transform="matrix(0.35277777,0,0,-0.35277777,28.978176,233.3373)"
         id="g894">
        <g
           id="g896" />
        <g
           id="g908">
          <g
             id="g906"
             clip-path="url(#clipPath900)">
            <g
               id="g904"
               transform="translate(256.718,287.4767)">
              <path
                 id="path902"
                 style="fill:#3b4d57;fill-opacity:1;fill-rule:nonzero;stroke:none"
                 d="m 0,0 c 0,0 -0.144,-0.084 -0.408,-0.207 -0.259,-0.131 -0.643,-0.285 -1.099,-0.459 -0.456,-0.176 -1.007,-0.319 -1.599,-0.449 -0.592,-0.128 -1.231,-0.231 -1.878,-0.322 -0.645,-0.105 -1.3,-0.183 -1.914,-0.29 -0.616,-0.095 -1.188,-0.239 -1.676,-0.362 -0.49,-0.117 -0.882,-0.285 -1.157,-0.382 -0.27,-0.117 -0.424,-0.184 -0.424,-0.184 0,0 0.166,0.018 0.457,0.05 0.288,0.037 0.704,0.053 1.195,0.098 0.494,0.033 1.071,0.072 1.687,0.113 0.618,0.046 1.28,0.119 1.945,0.215 0.663,0.11 1.326,0.263 1.931,0.468 0.608,0.198 1.143,0.47 1.588,0.713 0.446,0.244 0.776,0.513 1.006,0.694 C -0.126,-0.111 0,0 0,0" />
            </g>
          </g>
        </g>
      </g>
      <g
         transform="matrix(0.35277777,0,0,-0.35277777,28.978176,233.3373)"
         id="g910">
        <g
           id="g912" />
        <g
           id="g924">
          <g
             id="g922"
             clip-path="url(#clipPath916)">
            <g
               id="g920"
               transform="translate(267.7969,285.5555)">
              <path
                 id="path918"
                 style="fill:#3b4d57;fill-opacity:1;fill-rule:nonzero;stroke:none"
                 d="M 0,0 C 0,0 -0.241,0.21 -0.682,0.559 -1.128,0.9 -1.781,1.379 -2.636,1.839 -3.491,2.293 -4.522,2.781 -5.683,3.154 -6.841,3.538 -8.119,3.806 -9.409,3.97 -10.7,4.114 -12,4.162 -13.212,4.104 -14.423,4.055 -15.544,3.897 -16.497,3.744 -17.45,3.59 -18.229,3.38 -18.775,3.253 c -0.543,-0.144 -0.853,-0.227 -0.853,-0.227 0,0 0.32,0.023 0.879,0.063 0.557,0.051 1.359,0.076 2.31,0.135 0.952,0.056 2.062,0.08 3.244,0.085 1.183,-0.005 2.442,-0.045 3.691,-0.186 C -8.255,2.998 -7.019,2.77 -5.875,2.489 -4.734,2.198 -3.681,1.857 -2.811,1.478 -1.943,1.099 -1.229,0.743 -0.752,0.454 -0.266,0.18 0,0 0,0" />
            </g>
          </g>
        </g>
      </g>
      <g
         transform="matrix(0.35277777,0,0,-0.35277777,28.978176,233.3373)"
         id="g926">
        <g
           id="g928" />
        <g
           id="g940">
          <g
             id="g938"
             clip-path="url(#clipPath932)">
            <g
               id="g936"
               transform="translate(275.4724,288.4885)">
              <path
                 id="path934"
                 style="fill:#3b4d57;fill-opacity:1;fill-rule:nonzero;stroke:none"
                 d="m 0,0 c 0,0 0.043,-0.035 0.119,-0.096 0.078,-0.052 0.176,-0.153 0.298,-0.25 0.125,-0.095 0.253,-0.226 0.398,-0.343 0.142,-0.12 0.292,-0.247 0.442,-0.375 0.153,-0.121 0.306,-0.242 0.451,-0.357 0.142,-0.118 0.3,-0.21 0.421,-0.308 0.12,-0.096 0.25,-0.16 0.324,-0.221 0.086,-0.053 0.135,-0.083 0.135,-0.083 0,0 -0.009,0.057 -0.024,0.158 -0.027,0.092 -0.046,0.244 -0.122,0.394 -0.071,0.152 -0.159,0.333 -0.29,0.498 -0.128,0.168 -0.295,0.32 -0.467,0.464 C 1.502,-0.388 1.306,-0.275 1.111,-0.196 0.916,-0.115 0.722,-0.072 0.558,-0.039 0.395,-0.004 0.248,-0.011 0.153,0 0.056,0 0,0 0,0" />
            </g>
          </g>
        </g>
      </g>
      <g
         transform="matrix(0.35277777,0,0,-0.35277777,28.978176,233.3373)"
         id="g942">
        <g
           id="g944" />
        <g
           id="g956">
          <g
             id="g954"
             clip-path="url(#clipPath948)">
            <g
               id="g952"
               transform="translate(273.1272,283.1022)">
              <path
                 id="path950"
                 style="fill:#3b4d57;fill-opacity:1;fill-rule:nonzero;stroke:none"
                 d="M 0,0 C -0.016,-0.006 0.045,0.136 0.229,0.086 0.399,0.055 0.644,-0.08 0.901,-0.233 1.167,-0.385 1.423,-0.64 1.71,-0.899 1.995,-1.167 2.307,-1.447 2.597,-1.745 2.902,-2.031 3.182,-2.339 3.462,-2.616 3.733,-2.9 4.009,-3.154 4.219,-3.396 c 0.21,-0.241 0.415,-0.428 0.54,-0.573 0.137,-0.138 0.216,-0.218 0.216,-0.218 0,0 -0.029,0.109 -0.078,0.299 -0.07,0.179 -0.139,0.458 -0.295,0.752 -0.155,0.294 -0.328,0.65 -0.575,0.989 C 3.791,-1.8 3.487,-1.469 3.169,-1.155 2.839,-0.852 2.494,-0.569 2.139,-0.34 1.784,-0.104 1.395,0.045 1.063,0.145 0.724,0.249 0.431,0.224 0.224,0.207 -0.009,0.161 -0.01,-0.01 0,0" />
            </g>
          </g>
        </g>
      </g>
      <g
         transform="matrix(0.35277777,0,0,-0.35277777,28.978176,233.3373)"
         id="g958">
        <g
           id="g960" />
        <g
           id="g972">
          <g
             id="g970"
             clip-path="url(#clipPath964)">
            <g
               id="g968"
               transform="translate(272.862,281.2531)">
              <path
                 id="path966"
                 style="fill:#3b4d57;fill-opacity:1;fill-rule:nonzero;stroke:none"
                 d="m 0,0 c -0.007,-0.008 0.054,-0.026 0.186,-0.076 0.062,-0.015 0.137,-0.058 0.2,-0.12 0.077,-0.071 0.163,-0.15 0.26,-0.229 0.197,-0.153 0.397,-0.37 0.625,-0.57 0.225,-0.205 0.47,-0.41 0.7,-0.632 0.244,-0.209 0.467,-0.438 0.691,-0.641 0.22,-0.207 0.45,-0.388 0.623,-0.566 0.173,-0.177 0.352,-0.308 0.455,-0.416 0.118,-0.101 0.185,-0.158 0.185,-0.158 0,0 -0.018,0.087 -0.05,0.239 -0.048,0.144 -0.094,0.369 -0.213,0.603 -0.12,0.232 -0.248,0.52 -0.447,0.784 -0.193,0.268 -0.437,0.525 -0.697,0.763 -0.27,0.227 -0.553,0.438 -0.842,0.599 -0.289,0.162 -0.59,0.253 -0.833,0.347 C 0.72,-0.028 0.6,-0.003 0.496,0.022 0.376,0.052 0.273,0.052 0.188,0.04 0,0 0.001,-0.01 0,0" />
            </g>
          </g>
        </g>
      </g>
    </g>
  </g>
</svg>
