<?xml version="1.0" encoding="UTF-8" standalone="no"?>
<svg
   xmlns:dc="http://purl.org/dc/elements/1.1/"
   xmlns:cc="http://creativecommons.org/ns#"
   xmlns:rdf="http://www.w3.org/1999/02/22-rdf-syntax-ns#"
   xmlns:svg="http://www.w3.org/2000/svg"
   xmlns="http://www.w3.org/2000/svg"
   xmlns:sodipodi="http://sodipodi.sourceforge.net/DTD/sodipodi-0.dtd"
   xmlns:inkscape="http://www.inkscape.org/namespaces/inkscape"
   width="210mm"
   height="297mm"
   viewBox="0 0 210 297"
   version="1.1"
   id="svg8"
   inkscape:version="1.0 (4035a4fb49, 2020-05-01)"
   sodipodi:docname="ppl1.svg">
  <defs
     id="defs2">
    <linearGradient
       id="linearGradient46"
       spreadMethod="pad"
       gradientTransform="matrix(0,500,500,0,250,0)"
       gradientUnits="userSpaceOnUse"
       y2="0"
       x2="1"
       y1="0"
       x1="0">
      <stop
         id="stop32"
         offset="0"
         style="stop-opacity:1;stop-color:#eeeeee" />
      <stop
         id="stop34"
         offset="0.300971"
         style="stop-opacity:1;stop-color:#eeeeee" />
      <stop
         id="stop36"
         offset="0.31539979"
         style="stop-opacity:1;stop-color:#eeeeee" />
      <stop
         id="stop38"
         offset="0.34466"
         style="stop-opacity:1;stop-color:#d9d9d9" />
      <stop
         id="stop40"
         offset="0.34629237"
         style="stop-opacity:1;stop-color:#d9d9d9" />
      <stop
         id="stop42"
         offset="0.364078"
         style="stop-opacity:1;stop-color:#f7f7f7" />
      <stop
         id="stop44"
         offset="1"
         style="stop-opacity:1;stop-color:#f7f7f7" />
    </linearGradient>
    <clipPath
       id="clipPath60"
       clipPathUnits="userSpaceOnUse">
      <path
         id="path58"
         d="M 0,500 H 500 V 0 H 0 Z" />
    </clipPath>
    <clipPath
       id="clipPath100"
       clipPathUnits="userSpaceOnUse">
      <path
         id="path98"
         d="m 132.328,221.235 c 0,0 -9.982,-12.302 -9.087,-28.046 v 0 c 0.919,-16.188 11.727,-23.828 11.727,-23.828 v 0 c 0,0 0.72,0.987 1.522,2.55 v 0 c 0.666,1.298 0.403,3.042 0.403,3.042 v 0 c 0,0 -6.279,4.718 -6.54,16.535 v 0 c -0.232,10.476 3.433,13.445 3.433,13.445 v 0 l 3.37,-28.241 c 0,0 3.627,-6.93 23.373,-6.509 v 0 c 18.061,0.386 20.877,7.518 20.877,7.518 v 0 l 1.922,29.452 c 8.974,-14.823 -2,-30.584 -2,-30.584 v 0 l 3.08,-3.69 c 0,0 7.81,6.598 8.794,20.935 v 0 c 1.341,19.537 -7.761,28.788 -8.8,29.777 v 0 l 0.282,4.333 c -9.844,-10.677 -23.51,-13.443 -23.51,-13.443 v 0 c -19.325,2.862 -29.664,14.478 -29.664,14.478 v 0 z" />
    </clipPath>
    <clipPath
       id="clipPath120"
       clipPathUnits="userSpaceOnUse">
      <path
         id="path118"
         d="M 0,500 H 500 V 0 H 0 Z" />
    </clipPath>
    <clipPath
       id="clipPath128"
       clipPathUnits="userSpaceOnUse">
      <path
         id="path126"
         d="m 183.204,223.685 h 1.198 v -16.532 h -1.198 z" />
    </clipPath>
    <pattern
       id="pattern178"
       height="100"
       width="100"
       y="0"
       x="0"
       patternUnits="userSpaceOnUse"
       patternTransform="matrix(0.536791,0,0,0.536791,-3627.18,4226.75)">
      <path
         id="path130"
         style="fill:#7f5722;fill-opacity:1;fill-rule:nonzero;stroke:none"
         d="m -98.865,64.38 100,0 0,-3.305 -100,0 0,3.305 z" />
      <path
         id="path132"
         style="fill:#7f5722;fill-opacity:0.5;fill-rule:nonzero;stroke:none"
         d="m -98.865,71.861 100,0 0,-18.267 -100,0 0,18.267 z" />
      <path
         id="path134"
         style="fill:#7f5722;fill-opacity:1;fill-rule:nonzero;stroke:none"
         d="m -98.865,38.924 100,0 0,-3.305 -100,0 0,3.305 z" />
      <path
         id="path136"
         style="fill:#7f5722;fill-opacity:0.5;fill-rule:nonzero;stroke:none"
         d="m -98.865,46.405 100,0 0,-18.267 -100,0 0,18.267 z" />
      <path
         id="path138"
         style="fill:#7f5722;fill-opacity:1;fill-rule:nonzero;stroke:none"
         d="m -98.865,13.467 100,0 0,-3.305 -100,0 0,3.305 z" />
      <path
         id="path140"
         style="fill:#7f5722;fill-opacity:0.5;fill-rule:nonzero;stroke:none"
         d="m -98.865,20.948 100,0 0,-18.267 -100,0 0,18.267 z" />
      <path
         id="path142"
         style="fill:#7f5722;fill-opacity:1;fill-rule:nonzero;stroke:none"
         d="m -98.865,89.837 100,0 0,-3.305 -100,0 0,3.305 z" />
      <path
         id="path144"
         style="fill:#7f5722;fill-opacity:0.5;fill-rule:nonzero;stroke:none"
         d="m -98.865,97.318 100,0 0,-18.267 -100,0 0,18.267 z" />
      <path
         id="path146"
         style="fill:#7f5722;fill-opacity:1;fill-rule:nonzero;stroke:none"
         d="m 40.06,0 -3.305,0 0,100 3.305,0 0,-100 z" />
      <path
         id="path148"
         style="fill:#7f5722;fill-opacity:0.5;fill-rule:nonzero;stroke:none"
         d="m 47.54,0 -18.267,0 0,100 18.267,0 0,-100 z" />
      <path
         id="path150"
         style="fill:#7f5722;fill-opacity:1;fill-rule:nonzero;stroke:none"
         d="m 65.516,0 -3.305,0 0,100 3.305,0 0,-100 z" />
      <path
         id="path152"
         style="fill:#7f5722;fill-opacity:0.5;fill-rule:nonzero;stroke:none"
         d="m 72.996,0 -18.267,0 0,100 18.267,0 0,-100 z" />
      <path
         id="path154"
         style="fill:#7f5722;fill-opacity:1;fill-rule:nonzero;stroke:none"
         d="m 90.973,0 -3.305,0 0,100 3.305,0 0,-100 z" />
      <path
         id="path156"
         style="fill:#7f5722;fill-opacity:0.5;fill-rule:nonzero;stroke:none"
         d="m 98.453,0 -18.267,0 0,100 18.267,0 0,-100 z" />
      <path
         id="path158"
         style="fill:#7f5722;fill-opacity:1;fill-rule:nonzero;stroke:none"
         d="m 14.603,0 -3.305,0 0,100 3.305,0 0,-100 z" />
      <path
         id="path160"
         style="fill:#7f5722;fill-opacity:0.5;fill-rule:nonzero;stroke:none"
         d="m 22.083,0 -18.267,0 0,100 18.267,0 0,-100 z" />
      <path
         id="path162"
         style="fill:#7f5722;fill-opacity:1;fill-rule:nonzero;stroke:none"
         d="m 1.135,64.38 100,0 0,-3.305 -100,0 0,3.305 z" />
      <path
         id="path164"
         style="fill:#7f5722;fill-opacity:0.5;fill-rule:nonzero;stroke:none"
         d="m 1.135,71.861 100,0 0,-18.267 -100,0 0,18.267 z" />
      <path
         id="path166"
         style="fill:#7f5722;fill-opacity:1;fill-rule:nonzero;stroke:none"
         d="m 1.135,38.924 100,0 0,-3.305 -100,0 0,3.305 z" />
      <path
         id="path168"
         style="fill:#7f5722;fill-opacity:0.5;fill-rule:nonzero;stroke:none"
         d="m 1.135,46.405 100,0 0,-18.267 -100,0 0,18.267 z" />
      <path
         id="path170"
         style="fill:#7f5722;fill-opacity:1;fill-rule:nonzero;stroke:none"
         d="m 1.135,13.467 100,0 0,-3.305 -100,0 0,3.305 z" />
      <path
         id="path172"
         style="fill:#7f5722;fill-opacity:0.5;fill-rule:nonzero;stroke:none"
         d="m 1.135,20.948 100,0 0,-18.267 -100,0 0,18.267 z" />
      <path
         id="path174"
         style="fill:#7f5722;fill-opacity:1;fill-rule:nonzero;stroke:none"
         d="m 1.135,89.837 100,0 0,-3.305 -100,0 0,3.305 z" />
      <path
         id="path176"
         style="fill:#7f5722;fill-opacity:0.5;fill-rule:nonzero;stroke:none"
         d="m 1.135,97.318 100,0 0,-18.267 -100,0 0,18.267 z" />
    </pattern>
    <clipPath
       id="clipPath194"
       clipPathUnits="userSpaceOnUse">
      <path
         id="path192"
         d="m 183.204,223.685 h 1.198 v -16.532 h -1.198 z" />
    </clipPath>
    <pattern
       id="pattern228"
       height="100"
       width="100"
       y="0"
       x="0"
       patternUnits="userSpaceOnUse"
       patternTransform="matrix(0.536791,0,0,0.536791,-3627.18,4226.75)">
      <path
         id="path196"
         style="fill:#ec1c24;fill-opacity:1;fill-rule:nonzero;stroke:none"
         d="m 39.269,0 -3.305,0 0,100 3.305,0 0,-100 z" />
      <path
         id="path198"
         style="fill:#ae1f23;fill-opacity:0.5;fill-rule:nonzero;stroke:none"
         d="m 42.367,0 -9.501,0 0,100 9.501,0 0,-100 z" />
      <path
         id="path200"
         style="fill:#ec1c24;fill-opacity:1;fill-rule:nonzero;stroke:none"
         d="m 14.502,0 -3.305,0 0,100 3.305,0 0,-100 z" />
      <path
         id="path202"
         style="fill:#ae1f23;fill-opacity:0.5;fill-rule:nonzero;stroke:none"
         d="M 17.601,0 8.1,0 l 0,100 9.501,0 0,-100 z" />
      <path
         id="path204"
         style="fill:#ae1f23;fill-opacity:0.5;fill-rule:nonzero;stroke:none"
         d="m 67.134,0 -9.501,0 0,100 9.501,0 0,-100 z" />
      <path
         id="path206"
         style="fill:#ec1c24;fill-opacity:1;fill-rule:nonzero;stroke:none"
         d="m 64.036,0 -3.305,0 0,100 3.305,0 0,-100 z" />
      <path
         id="path208"
         style="fill:#ec1c24;fill-opacity:1;fill-rule:nonzero;stroke:none"
         d="m 88.802,0 -3.305,0 0,100 3.305,0 0,-100 z" />
      <path
         id="path210"
         style="fill:#ae1f23;fill-opacity:0.5;fill-rule:nonzero;stroke:none"
         d="m 91.9,0 -9.501,0 0,100 9.501,0 0,-100 z" />
      <path
         id="path212"
         style="fill:#ec1c24;fill-opacity:1;fill-rule:nonzero;stroke:none"
         d="m 0,64.035 100,0 0,-3.305 -100,0 0,3.305 z" />
      <path
         id="path214"
         style="fill:#ae1f23;fill-opacity:0.5;fill-rule:nonzero;stroke:none"
         d="m 0,67.134 100,0 0,-9.501 -100,0 0,9.501 z" />
      <path
         id="path216"
         style="fill:#ec1c24;fill-opacity:1;fill-rule:nonzero;stroke:none"
         d="m 0,88.803 100,0 0,-3.305 -100,0 0,3.305 z" />
      <path
         id="path218"
         style="fill:#ae1f23;fill-opacity:0.5;fill-rule:nonzero;stroke:none"
         d="m 0,91.9 100,0 0,-9.501 -100,0 0,9.501 z" />
      <path
         id="path220"
         style="fill:#ec1c24;fill-opacity:1;fill-rule:nonzero;stroke:none"
         d="m 0,39.27 100,0 0,-3.305 -100,0 0,3.305 z" />
      <path
         id="path222"
         style="fill:#ae1f23;fill-opacity:0.5;fill-rule:nonzero;stroke:none"
         d="m 0,42.367 100,0 0,-9.501 -100,0 0,9.501 z" />
      <path
         id="path224"
         style="fill:#ec1c24;fill-opacity:1;fill-rule:nonzero;stroke:none"
         d="m 0,14.502 100,0 0,-3.305 -100,0 0,3.305 z" />
      <path
         id="path226"
         style="fill:#ae1f23;fill-opacity:0.5;fill-rule:nonzero;stroke:none"
         d="m 0,17.601 100,0 0,-9.501 -100,0 0,9.501 z" />
    </pattern>
    <clipPath
       id="clipPath288"
       clipPathUnits="userSpaceOnUse">
      <path
         id="path286"
         d="m 163.168,246.982 h 1.36 v -5.785 h -1.36 z" />
    </clipPath>
    <clipPath
       id="clipPath304"
       clipPathUnits="userSpaceOnUse">
      <path
         id="path302"
         d="m 151.061,261.625 h 5.533 v -8.737 h -5.533 z" />
    </clipPath>
    <clipPath
       id="clipPath320"
       clipPathUnits="userSpaceOnUse">
      <path
         id="path318"
         d="m 165.785,261.568 h 6.663 v -8.089 h -6.663 z" />
    </clipPath>
    <clipPath
       id="clipPath336"
       clipPathUnits="userSpaceOnUse">
      <path
         id="path334"
         d="m 146.644,252.294 h 1.184 v -3.121 h -1.184 z" />
    </clipPath>
    <clipPath
       id="clipPath352"
       clipPathUnits="userSpaceOnUse">
      <path
         id="path350"
         d="m 174.479,252.247 h 1.185 v -3.121 h -1.185 z" />
    </clipPath>
    <clipPath
       id="clipPath376"
       clipPathUnits="userSpaceOnUse">
      <path
         id="path374"
         d="m 132.332,291.542 h 43.719 v -11.308 h -43.719 z" />
    </clipPath>
    <clipPath
       id="clipPath392"
       clipPathUnits="userSpaceOnUse">
      <path
         id="path390"
         d="m 160.39,292.252 h 11.97 v -5.16 h -11.97 z" />
    </clipPath>
    <clipPath
       id="clipPath408"
       clipPathUnits="userSpaceOnUse">
      <path
         id="path406"
         d="m 150.584,293.713 h 21.095 v -4.485 h -21.095 z" />
    </clipPath>
    <clipPath
       id="clipPath424"
       clipPathUnits="userSpaceOnUse">
      <path
         id="path422"
         d="m 162.526,295.499 h 8.935 v -3.925 h -8.935 z" />
    </clipPath>
    <clipPath
       id="clipPath440"
       clipPathUnits="userSpaceOnUse">
      <path
         id="path438"
         d="m 127.447,288.001 h 13.234 v -10.308 h -13.234 z" />
    </clipPath>
    <clipPath
       id="clipPath456"
       clipPathUnits="userSpaceOnUse">
      <path
         id="path454"
         d="m 138.382,287.451 h 16.006 v -11.355 h -16.006 z" />
    </clipPath>
    <clipPath
       id="clipPath472"
       clipPathUnits="userSpaceOnUse">
      <path
         id="path470"
         d="m 140.404,288.101 h 21.558 v -12.173 h -21.558 z" />
    </clipPath>
    <clipPath
       id="clipPath488"
       clipPathUnits="userSpaceOnUse">
      <path
         id="path486"
         d="m 156.304,281.452 h 9.05 v -5.317 h -9.05 z" />
    </clipPath>
    <clipPath
       id="clipPath504"
       clipPathUnits="userSpaceOnUse">
      <path
         id="path502"
         d="m 157.205,288.901 h 17.367 v -9.633 h -17.367 z" />
    </clipPath>
    <clipPath
       id="clipPath520"
       clipPathUnits="userSpaceOnUse">
      <path
         id="path518"
         d="m 179.846,288.529 h 6.317 v -5.138 h -6.317 z" />
    </clipPath>
    <clipPath
       id="clipPath536"
       clipPathUnits="userSpaceOnUse">
      <path
         id="path534"
         d="m 180.522,287.156 h 2.704 v -1.884 h -2.704 z" />
    </clipPath>
    <clipPath
       id="clipPath552"
       clipPathUnits="userSpaceOnUse">
      <path
         id="path550"
         d="m 178.236,286.294 h 7.257 v -5.557 h -7.257 z" />
    </clipPath>
    <clipPath
       id="clipPath568"
       clipPathUnits="userSpaceOnUse">
      <path
         id="path566"
         d="m 179.158,284.123 h 5.22 v -4.139 h -5.22 z" />
    </clipPath>
    <clipPath
       id="clipPath584"
       clipPathUnits="userSpaceOnUse">
      <path
         id="path582"
         d="m 179.023,280.183 h 4.117 v -3.234 h -4.117 z" />
    </clipPath>
    <clipPath
       id="clipPath700"
       clipPathUnits="userSpaceOnUse">
      <path
         id="path698"
         d="m 255.843,246.982 h 1.361 v -5.785 h -1.361 z" />
    </clipPath>
    <clipPath
       id="clipPath716"
       clipPathUnits="userSpaceOnUse">
      <path
         id="path714"
         d="m 243.736,261.625 h 15.257 V 227.54 h -15.257 z" />
    </clipPath>
    <clipPath
       id="clipPath736"
       clipPathUnits="userSpaceOnUse">
      <path
         id="path734"
         d="m 258.461,261.568 h 6.663 v -8.089 h -6.663 z" />
    </clipPath>
    <clipPath
       id="clipPath752"
       clipPathUnits="userSpaceOnUse">
      <path
         id="path750"
         d="m 239.32,252.294 h 1.184 v -3.121 h -1.184 z" />
    </clipPath>
    <clipPath
       id="clipPath768"
       clipPathUnits="userSpaceOnUse">
      <path
         id="path766"
         d="m 267.155,252.247 h 1.184 v -3.121 h -1.184 z" />
    </clipPath>
    <clipPath
       id="clipPath788"
       clipPathUnits="userSpaceOnUse">
      <path
         id="path786"
         d="M 223.919,291.698 H 268.85 V 282.43 H 223.919 Z" />
    </clipPath>
    <clipPath
       id="clipPath804"
       clipPathUnits="userSpaceOnUse">
      <path
         id="path802"
         d="m 251.87,294.782 h 13.017 v -1.599 H 251.87 Z" />
    </clipPath>
    <clipPath
       id="clipPath820"
       clipPathUnits="userSpaceOnUse">
      <path
         id="path818"
         d="m 242.532,296.185 h 20.976 v -5.323 h -20.976 z" />
    </clipPath>
    <clipPath
       id="clipPath836"
       clipPathUnits="userSpaceOnUse">
      <path
         id="path834"
         d="m 252.094,299.934 h 9.695 v -1.608 h -9.695 z" />
    </clipPath>
    <clipPath
       id="clipPath852"
       clipPathUnits="userSpaceOnUse">
      <path
         id="path850"
         d="m 221.551,271.104 h 16.643 v -3.479 h -16.643 z" />
    </clipPath>
    <clipPath
       id="clipPath868"
       clipPathUnits="userSpaceOnUse">
      <path
         id="path866"
         d="m 229.661,279.683 h 19.343 v -3.317 h -19.343 z" />
    </clipPath>
    <clipPath
       id="clipPath884"
       clipPathUnits="userSpaceOnUse">
      <path
         id="path882"
         d="m 230.629,284.929 h 23.841 v -6.673 h -23.841 z" />
    </clipPath>
    <clipPath
       id="clipPath900"
       clipPathUnits="userSpaceOnUse">
      <path
         id="path898"
         d="m 246.563,287.477 h 10.155 v -2.655 h -10.155 z" />
    </clipPath>
    <clipPath
       id="clipPath916"
       clipPathUnits="userSpaceOnUse">
      <path
         id="path914"
         d="m 248.169,289.684 h 19.628 v -4.128 h -19.628 z" />
    </clipPath>
    <clipPath
       id="clipPath932"
       clipPathUnits="userSpaceOnUse">
      <path
         id="path930"
         d="m 275.472,288.489 h 2.588 v -2.034 h -2.588 z" />
    </clipPath>
    <clipPath
       id="clipPath948"
       clipPathUnits="userSpaceOnUse">
      <path
         id="path946"
         d="m 273.124,283.325 h 4.978 v -4.409 h -4.978 z" />
    </clipPath>
    <clipPath
       id="clipPath964"
       clipPathUnits="userSpaceOnUse">
      <path
         id="path962"
         d="m 272.861,281.301 h 3.926 v -3.456 h -3.926 z" />
    </clipPath>
    <clipPath
       id="clipPath1018"
       clipPathUnits="userSpaceOnUse">
      <path
         id="path1016"
         d="M 0,91.9004 H 100 V 8.09961 H 0 Z" />
    </clipPath>
    <pattern
       id="pattern1060"
       height="100"
       width="100"
       y="0"
       x="0"
       patternUnits="userSpaceOnUse"
       patternTransform="matrix(0.194285,0,0,0.194285,-6421.85,6889.49)">
      <path
         id="path1020"
         style="fill:#0a0a0a;fill-opacity:1;fill-rule:nonzero;stroke:none"
         d="m 39.269,0 -3.305,0 0,100 3.305,0 0,-100 z" />
      <path
         id="path1022"
         style="fill:#0a0a0a;fill-opacity:0.5;fill-rule:nonzero;stroke:none"
         d="m 42.367,0 -9.501,0 0,100 9.501,0 0,-100 z" />
      <path
         id="path1024"
         style="fill:#0a0a0a;fill-opacity:1;fill-rule:nonzero;stroke:none"
         d="m 14.502,0 -3.305,0 0,100 3.305,0 0,-100 z" />
      <path
         id="path1026"
         style="fill:#0a0a0a;fill-opacity:0.5;fill-rule:nonzero;stroke:none"
         d="M 17.601,0 8.1,0 l 0,100 9.501,0 0,-100 z" />
      <path
         id="path1028"
         style="fill:#0a0a0a;fill-opacity:1;fill-rule:nonzero;stroke:none"
         d="m 64.036,0 -3.305,0 0,100 3.305,0 0,-100 z" />
      <path
         id="path1030"
         style="fill:#0a0a0a;fill-opacity:0.5;fill-rule:nonzero;stroke:none"
         d="m 67.134,0 -9.501,0 0,100 9.501,0 0,-100 z" />
      <path
         id="path1032"
         style="fill:#0a0a0a;fill-opacity:1;fill-rule:nonzero;stroke:none"
         d="m 88.802,0 -3.305,0 0,100 3.305,0 0,-100 z" />
      <path
         id="path1034"
         style="fill:#0a0a0a;fill-opacity:0.5;fill-rule:nonzero;stroke:none"
         d="m 91.9,0 -9.501,0 0,100 9.501,0 0,-100 z" />
      <g
         id="g1058">
        <g
           id="g1036" />
        <g
           id="g1056">
          <g
             id="g1054"
             opacity="0.5"
             clip-path="url(#clipPath1018)">
            <path
               id="path1038"
               style="fill:#0a0a0a;fill-opacity:1;fill-rule:nonzero;stroke:none"
               d="m 0,64.035 100,0 0,-3.305 -100,0 0,3.305 z" />
            <path
               id="path1040"
               style="fill:#0a0a0a;fill-opacity:0.5;fill-rule:nonzero;stroke:none"
               d="m 0,67.134 100,0 0,-9.501 -100,0 0,9.501 z" />
            <path
               id="path1042"
               style="fill:#0a0a0a;fill-opacity:1;fill-rule:nonzero;stroke:none"
               d="m 0,88.803 100,0 0,-3.305 -100,0 0,3.305 z" />
            <path
               id="path1044"
               style="fill:#0a0a0a;fill-opacity:0.5;fill-rule:nonzero;stroke:none"
               d="m 0,91.9 100,0 0,-9.501 -100,0 0,9.501 z" />
            <path
               id="path1046"
               style="fill:#0a0a0a;fill-opacity:1;fill-rule:nonzero;stroke:none"
               d="m 0,39.27 100,0 0,-3.305 -100,0 0,3.305 z" />
            <path
               id="path1048"
               style="fill:#0a0a0a;fill-opacity:0.5;fill-rule:nonzero;stroke:none"
               d="m 0,42.367 100,0 0,-9.501 -100,0 0,9.501 z" />
            <path
               id="path1050"
               style="fill:#0a0a0a;fill-opacity:1;fill-rule:nonzero;stroke:none"
               d="m 0,14.502 100,0 0,-3.305 -100,0 0,3.305 z" />
            <path
               id="path1052"
               style="fill:#0a0a0a;fill-opacity:0.5;fill-rule:nonzero;stroke:none"
               d="m 0,17.601 100,0 0,-9.501 -100,0 0,9.501 z" />
          </g>
        </g>
      </g>
    </pattern>
    <clipPath
       id="clipPath1088"
       clipPathUnits="userSpaceOnUse">
      <path
         id="path1086"
         d="M 0,91.9004 H 100 V 8.09961 H 0 Z" />
    </clipPath>
    <pattern
       id="pattern1130"
       height="100"
       width="100"
       y="0"
       x="0"
       patternUnits="userSpaceOnUse"
       patternTransform="matrix(0.192395,-0.0270393,0.0270393,0.192395,-6558.46,6732.26)">
      <path
         id="path1090"
         style="fill:#0a0a0a;fill-opacity:1;fill-rule:nonzero;stroke:none"
         d="m 39.269,0 -3.305,0 0,100 3.305,0 0,-100 z" />
      <path
         id="path1092"
         style="fill:#0a0a0a;fill-opacity:0.5;fill-rule:nonzero;stroke:none"
         d="m 42.367,0 -9.501,0 0,100 9.501,0 0,-100 z" />
      <path
         id="path1094"
         style="fill:#0a0a0a;fill-opacity:1;fill-rule:nonzero;stroke:none"
         d="m 14.502,0 -3.305,0 0,100 3.305,0 0,-100 z" />
      <path
         id="path1096"
         style="fill:#0a0a0a;fill-opacity:0.5;fill-rule:nonzero;stroke:none"
         d="M 17.601,0 8.1,0 l 0,100 9.501,0 0,-100 z" />
      <path
         id="path1098"
         style="fill:#0a0a0a;fill-opacity:1;fill-rule:nonzero;stroke:none"
         d="m 64.036,0 -3.305,0 0,100 3.305,0 0,-100 z" />
      <path
         id="path1100"
         style="fill:#0a0a0a;fill-opacity:0.5;fill-rule:nonzero;stroke:none"
         d="m 67.134,0 -9.501,0 0,100 9.501,0 0,-100 z" />
      <path
         id="path1102"
         style="fill:#0a0a0a;fill-opacity:1;fill-rule:nonzero;stroke:none"
         d="m 88.802,0 -3.305,0 0,100 3.305,0 0,-100 z" />
      <path
         id="path1104"
         style="fill:#0a0a0a;fill-opacity:0.5;fill-rule:nonzero;stroke:none"
         d="m 91.9,0 -9.501,0 0,100 9.501,0 0,-100 z" />
      <g
         id="g1128">
        <g
           id="g1106" />
        <g
           id="g1126">
          <g
             id="g1124"
             opacity="0.5"
             clip-path="url(#clipPath1088)">
            <path
               id="path1108"
               style="fill:#0a0a0a;fill-opacity:1;fill-rule:nonzero;stroke:none"
               d="m 0,64.035 100,0 0,-3.305 -100,0 0,3.305 z" />
            <path
               id="path1110"
               style="fill:#0a0a0a;fill-opacity:0.5;fill-rule:nonzero;stroke:none"
               d="m 0,67.134 100,0 0,-9.501 -100,0 0,9.501 z" />
            <path
               id="path1112"
               style="fill:#0a0a0a;fill-opacity:1;fill-rule:nonzero;stroke:none"
               d="m 0,88.803 100,0 0,-3.305 -100,0 0,3.305 z" />
            <path
               id="path1114"
               style="fill:#0a0a0a;fill-opacity:0.5;fill-rule:nonzero;stroke:none"
               d="m 0,91.9 100,0 0,-9.501 -100,0 0,9.501 z" />
            <path
               id="path1116"
               style="fill:#0a0a0a;fill-opacity:1;fill-rule:nonzero;stroke:none"
               d="m 0,39.27 100,0 0,-3.305 -100,0 0,3.305 z" />
            <path
               id="path1118"
               style="fill:#0a0a0a;fill-opacity:0.5;fill-rule:nonzero;stroke:none"
               d="m 0,42.367 100,0 0,-9.501 -100,0 0,9.501 z" />
            <path
               id="path1120"
               style="fill:#0a0a0a;fill-opacity:1;fill-rule:nonzero;stroke:none"
               d="m 0,14.502 100,0 0,-3.305 -100,0 0,3.305 z" />
            <path
               id="path1122"
               style="fill:#0a0a0a;fill-opacity:0.5;fill-rule:nonzero;stroke:none"
               d="m 0,17.601 100,0 0,-9.501 -100,0 0,9.501 z" />
          </g>
        </g>
      </g>
    </pattern>
    <clipPath
       id="clipPath1204"
       clipPathUnits="userSpaceOnUse">
      <path
         id="path1202"
         d="m 353.422,265.866 h 6.663 v -8.09 h -6.663 z" />
    </clipPath>
    <clipPath
       id="clipPath1228"
       clipPathUnits="userSpaceOnUse">
      <path
         id="path1226"
         d="m 350.804,251.28 h 1.36 v -5.785 h -1.36 z" />
    </clipPath>
    <clipPath
       id="clipPath1244"
       clipPathUnits="userSpaceOnUse">
      <path
         id="path1242"
         d="m 338.697,265.923 h 15.256 v -34.085 h -15.256 z" />
    </clipPath>
    <clipPath
       id="clipPath1264"
       clipPathUnits="userSpaceOnUse">
      <path
         id="path1262"
         d="m 334.28,256.592 h 1.185 v -3.122 h -1.185 z" />
    </clipPath>
    <clipPath
       id="clipPath1280"
       clipPathUnits="userSpaceOnUse">
      <path
         id="path1278"
         d="m 362.115,256.545 h 1.185 v -3.122 h -1.185 z" />
    </clipPath>
    <clipPath
       id="clipPath1300"
       clipPathUnits="userSpaceOnUse">
      <path
         id="path1298"
         d="m 325.344,292.616 h 41.384 v -18.071 h -41.384 z" />
    </clipPath>
    <clipPath
       id="clipPath1316"
       clipPathUnits="userSpaceOnUse">
      <path
         id="path1314"
         d="m 325.756,290.319 h 11.005 v -6.987 h -11.005 z" />
    </clipPath>
    <clipPath
       id="clipPath1332"
       clipPathUnits="userSpaceOnUse">
      <path
         id="path1330"
         d="m 326.092,292.364 h 20.289 v -6.815 h -20.289 z" />
    </clipPath>
    <clipPath
       id="clipPath1348"
       clipPathUnits="userSpaceOnUse">
      <path
         id="path1346"
         d="m 325.936,293.057 h 8.224 v -5.156 h -8.224 z" />
    </clipPath>
    <clipPath
       id="clipPath1364"
       clipPathUnits="userSpaceOnUse">
      <path
         id="path1362"
         d="m 363.536,290.607 h 11.44 v -12.269 h -11.44 z" />
    </clipPath>
    <clipPath
       id="clipPath1380"
       clipPathUnits="userSpaceOnUse">
      <path
         id="path1378"
         d="m 350.253,288.337 h 14.011 v -13.741 h -14.011 z" />
    </clipPath>
    <clipPath
       id="clipPath1396"
       clipPathUnits="userSpaceOnUse">
      <path
         id="path1394"
         d="m 342.8,288.659 h 19.366 V 273.235 H 342.8 Z" />
    </clipPath>
    <clipPath
       id="clipPath1412"
       clipPathUnits="userSpaceOnUse">
      <path
         id="path1410"
         d="m 339.419,279.583 h 8.096 v -6.68 h -8.096 z" />
    </clipPath>
    <clipPath
       id="clipPath1428"
       clipPathUnits="userSpaceOnUse">
      <path
         id="path1426"
         d="m 326.957,286.08 h 15.627 v -12.256 h -15.627 z" />
    </clipPath>
    <clipPath
       id="clipPath1444"
       clipPathUnits="userSpaceOnUse">
      <path
         id="path1442"
         d="m 311.898,280.502 h 5.603 v -5.867 h -5.603 z" />
    </clipPath>
    <clipPath
       id="clipPath1460"
       clipPathUnits="userSpaceOnUse">
      <path
         id="path1458"
         d="m 314.597,279.232 h 2.375 v -2.278 h -2.375 z" />
    </clipPath>
    <clipPath
       id="clipPath1476"
       clipPathUnits="userSpaceOnUse">
      <path
         id="path1474"
         d="m 313.075,278.71 h 6.295 v -6.592 h -6.295 z" />
    </clipPath>
    <clipPath
       id="clipPath1492"
       clipPathUnits="userSpaceOnUse">
      <path
         id="path1490"
         d="m 314.295,276.391 h 4.54 v -4.84 h -4.54 z" />
    </clipPath>
    <clipPath
       id="clipPath1508"
       clipPathUnits="userSpaceOnUse">
      <path
         id="path1506"
         d="m 315.997,272.55 h 3.584 v -3.801 h -3.584 z" />
    </clipPath>
    <clipPath
       id="clipPath1620"
       clipPathUnits="userSpaceOnUse">
      <path
         id="path1618"
         d="m 444.307,248.414 h 1.36 v -5.784 h -1.36 z" />
    </clipPath>
    <clipPath
       id="clipPath1636"
       clipPathUnits="userSpaceOnUse">
      <path
         id="path1634"
         d="m 432.2,263.058 h 15.256 V 228.973 H 432.2 Z" />
    </clipPath>
    <clipPath
       id="clipPath1656"
       clipPathUnits="userSpaceOnUse">
      <path
         id="path1654"
         d="m 446.925,263 h 6.663 v -8.089 h -6.663 z" />
    </clipPath>
    <clipPath
       id="clipPath1672"
       clipPathUnits="userSpaceOnUse">
      <path
         id="path1670"
         d="m 427.783,253.727 h 1.184 v -3.122 h -1.184 z" />
    </clipPath>
    <clipPath
       id="clipPath1688"
       clipPathUnits="userSpaceOnUse">
      <path
         id="path1686"
         d="m 455.618,253.68 h 1.185 v -3.122 h -1.185 z" />
    </clipPath>
    <clipPath
       id="clipPath1728"
       clipPathUnits="userSpaceOnUse">
      <path
         id="path1726"
         d="m 418.861,294.516 h 41.384 v -18.071 h -41.384 z" />
    </clipPath>
    <clipPath
       id="clipPath1744"
       clipPathUnits="userSpaceOnUse">
      <path
         id="path1742"
         d="m 419.273,290.787 h 11.005 V 283.8 h -11.005 z" />
    </clipPath>
    <clipPath
       id="clipPath1760"
       clipPathUnits="userSpaceOnUse">
      <path
         id="path1758"
         d="m 419.608,292.832 h 20.289 v -6.815 h -20.289 z" />
    </clipPath>
    <clipPath
       id="clipPath1776"
       clipPathUnits="userSpaceOnUse">
      <path
         id="path1774"
         d="m 419.453,294.957 h 8.224 v -5.156 h -8.224 z" />
    </clipPath>
    <clipPath
       id="clipPath1792"
       clipPathUnits="userSpaceOnUse">
      <path
         id="path1790"
         d="m 457.053,292.508 h 11.439 v -12.269 h -11.439 z" />
    </clipPath>
    <clipPath
       id="clipPath1808"
       clipPathUnits="userSpaceOnUse">
      <path
         id="path1806"
         d="m 443.77,290.237 h 14.011 v -13.74 H 443.77 Z" />
    </clipPath>
    <clipPath
       id="clipPath1824"
       clipPathUnits="userSpaceOnUse">
      <path
         id="path1822"
         d="m 436.317,290.56 h 19.365 v -15.425 h -19.365 z" />
    </clipPath>
    <clipPath
       id="clipPath1840"
       clipPathUnits="userSpaceOnUse">
      <path
         id="path1838"
         d="m 432.935,281.483 h 8.097 v -6.679 h -8.097 z" />
    </clipPath>
    <clipPath
       id="clipPath1856"
       clipPathUnits="userSpaceOnUse">
      <path
         id="path1854"
         d="M 420.473,287.98 H 436.1 v -12.255 h -15.627 z" />
    </clipPath>
    <clipPath
       id="clipPath1872"
       clipPathUnits="userSpaceOnUse">
      <path
         id="path1870"
         d="m 408.114,281.133 h 2.374 v -2.279 h -2.374 z" />
    </clipPath>
    <clipPath
       id="clipPath1888"
       clipPathUnits="userSpaceOnUse">
      <path
         id="path1886"
         d="m 408.816,276.188 h 4.54 v -4.841 h -4.54 z" />
    </clipPath>
    <clipPath
       id="clipPath1904"
       clipPathUnits="userSpaceOnUse">
      <path
         id="path1902"
         d="m 410.23,274.212 h 3.571 v -3.801 h -3.571 z" />
    </clipPath>
    <clipPath
       id="clipPath2048"
       clipPathUnits="userSpaceOnUse">
      <path
         id="path2046"
         d="m 62.9101,245.549 h 1.3603 v -5.784 h -1.3603 z" />
    </clipPath>
    <clipPath
       id="clipPath2064"
       clipPathUnits="userSpaceOnUse">
      <path
         id="path2062"
         d="M 50.8032,260.193 H 66.0594 V 226.108 H 50.8032 Z" />
    </clipPath>
    <clipPath
       id="clipPath2084"
       clipPathUnits="userSpaceOnUse">
      <path
         id="path2082"
         d="m 65.528,260.135 h 6.663 v -8.089 h -6.663 z" />
    </clipPath>
    <clipPath
       id="clipPath2100"
       clipPathUnits="userSpaceOnUse">
      <path
         id="path2098"
         d="m 46.3866,250.862 h 1.1843 v -3.122 h -1.1843 z" />
    </clipPath>
    <clipPath
       id="clipPath2116"
       clipPathUnits="userSpaceOnUse">
      <path
         id="path2114"
         d="m 74.2218,250.815 h 1.1844 v -3.122 h -1.1844 z" />
    </clipPath>
    <clipPath
       id="clipPath2148"
       clipPathUnits="userSpaceOnUse">
      <path
         id="path2146"
         d="M 32.5087,294.355 H 77.6443 V 287.7 H 32.5087 Z" />
    </clipPath>
    <clipPath
       id="clipPath2164"
       clipPathUnits="userSpaceOnUse">
      <path
         id="path2162"
         d="m 61.7181,297.116 h 12.8121 v -2.741 H 61.7181 Z" />
    </clipPath>
    <clipPath
       id="clipPath2180"
       clipPathUnits="userSpaceOnUse">
      <path
         id="path2178"
         d="m 52.0641,298.493 h 21.3312 v -3.485 H 52.0641 Z" />
    </clipPath>
    <clipPath
       id="clipPath2196"
       clipPathUnits="userSpaceOnUse">
      <path
         id="path2194"
         d="m 62.584,302.263 h 9.5506 V 299.88 H 62.584 Z" />
    </clipPath>
    <clipPath
       id="clipPath2212"
       clipPathUnits="userSpaceOnUse">
      <path
         id="path2210"
         d="m 29.1868,278.349 h 16.5644 v -3.834 H 29.1868 Z" />
    </clipPath>
    <clipPath
       id="clipPath2228"
       clipPathUnits="userSpaceOnUse">
      <path
         id="path2226"
         d="m 36.3852,286.052 h 18.1121 v -7.555 H 36.3852 Z" />
    </clipPath>
    <clipPath
       id="clipPath2244"
       clipPathUnits="userSpaceOnUse">
      <path
         id="path2242"
         d="m 38.2141,287.13 h 23.7085 v -7.215 H 38.2141 Z" />
    </clipPath>
    <clipPath
       id="clipPath2260"
       clipPathUnits="userSpaceOnUse">
      <path
         id="path2258"
         d="m 55.1873,284.144 h 9.9983 v -3.325 h -9.9983 z" />
    </clipPath>
    <clipPath
       id="clipPath2276"
       clipPathUnits="userSpaceOnUse">
      <path
         id="path2274"
         d="m 57.3537,292.326 h 19.0608 v -5.894 H 57.3537 Z" />
    </clipPath>
    <clipPath
       id="clipPath2292"
       clipPathUnits="userSpaceOnUse">
      <path
         id="path2290"
         d="m 83.677,289.565 h 3.0507 v -1.368 H 83.677 Z" />
    </clipPath>
    <clipPath
       id="clipPath2308"
       clipPathUnits="userSpaceOnUse">
      <path
         id="path2306"
         d="m 82.9122,284.04 h 5.9515 v -3.074 h -5.9515 z" />
    </clipPath>
    <clipPath
       id="clipPath2324"
       clipPathUnits="userSpaceOnUse">
      <path
         id="path2322"
         d="m 83.1804,281.923 h 4.7182 v -2.351 h -4.7182 z" />
    </clipPath>
    <clipPath
       id="clipPath2352"
       clipPathUnits="userSpaceOnUse">
      <path
         id="path2350"
         d="M 0,500 H 500 V 0 H 0 Z" />
    </clipPath>
  </defs>
  <sodipodi:namedview
     id="base"
     pagecolor="#ffffff"
     bordercolor="#666666"
     borderopacity="1.0"
     inkscape:pageopacity="0.0"
     inkscape:pageshadow="2"
     inkscape:zoom="0.35"
     inkscape:cx="-752.89729"
     inkscape:cy="382.15398"
     inkscape:document-units="mm"
     inkscape:current-layer="layer1"
     inkscape:document-rotation="0"
     showgrid="false"
     inkscape:window-width="1274"
     inkscape:window-height="728"
     inkscape:window-x="76"
     inkscape:window-y="0"
     inkscape:window-maximized="0" />
  <metadata
     id="metadata5">
    <rdf:RDF>
      <cc:Work
         rdf:about="">
        <dc:format>image/svg+xml</dc:format>
        <dc:type
           rdf:resource="http://purl.org/dc/dcmitype/StillImage" />
        <dc:title />
      </cc:Work>
    </rdf:RDF>
  </metadata>
  <g
     inkscape:label="Layer 1"
     inkscape:groupmode="layer"
     id="layer1">
    <g
       id="g6976"
       transform="matrix(3.2975737,0,0,3.2975737,-495.03271,-372.37945)">
      <g
         transform="matrix(0.35277777,0,0,-0.35277777,173.5658,170.44002)"
         id="g1518">
        <path
           id="path1520"
           style="fill:#c3996b;fill-opacity:1;fill-rule:nonzero;stroke:none"
           d="m 0,0 c 0,0 -7.232,-13.553 -1.328,-20.442 5.905,-6.889 11.781,1.252 12.019,6.173 0.238,4.921 -1.014,6.71 -1.014,6.71 0,0 -3.593,4.383 -3.989,4.562 C 5.293,-2.817 0,0 0,0" />
      </g>
      <g
         transform="matrix(0.35277777,0,0,-0.35277777,176.28505,166.43137)"
         id="g1522">
        <path
           id="path1524"
           style="fill:#a26f3a;fill-opacity:1;fill-rule:nonzero;stroke:none"
           d="m 0,0 c 0,0 -4.026,-5.367 -4.697,-8.141 -0.671,-2.773 1.985,-3.812 1.985,-3.812 0,0 2.897,5.099 4.177,6.352 1.28,1.252 -0.284,3.007 -0.284,3.007 z" />
      </g>
      <g
         transform="matrix(0.35277777,0,0,-0.35277777,194.08399,143.24191)"
         id="g1526">
        <path
           id="path1528"
           style="fill:#e8b785;fill-opacity:1;fill-rule:nonzero;stroke:none"
           d="M 0,0 C 0,0 1.126,2.595 3.307,1.118 5.488,-0.358 2.972,-6.223 -0.399,-6.327 Z" />
      </g>
      <g
         transform="matrix(0.35277777,0,0,-0.35277777,172.59757,143.69178)"
         id="g1530">
        <path
           id="path1532"
           style="fill:#fcd7ad;fill-opacity:1;fill-rule:nonzero;stroke:none"
           d="M 0,0 C 1.237,1.838 2.812,0.727 3.291,0.318 L 2.908,3.937 c 0,0 0.536,14.851 1.61,15.924 1.074,1.074 14.493,5.548 15.567,6.084 1.074,0.537 20.577,0 22.903,-0.894 2.326,-0.895 13.718,-0.804 14.255,-1.162 0.537,-0.358 4.622,-7.338 4.622,-7.338 0,0 -7.246,-116.215 -8.32,-124.535 0,0 -5.905,-2.953 -9.93,0 0,0 -1.879,11.809 -8.321,17.446 0,0 -8.32,-7.187 -9.394,-18.758 0,0 -6.531,-2.296 -11.004,0 L 4.161,-7.903 C -0.069,-7.651 -1.46,-2.168 0,0" />
      </g>
      <g
         transform="matrix(0.35277777,0,0,-0.35277777,192.28719,171.08748)"
         id="g1534">
        <path
           id="path1536"
           style="fill:#e1b890;fill-opacity:1;fill-rule:nonzero;stroke:none"
           d="m 0,0 0.581,0.336 c 0,0 4.172,4.745 5.116,13.603 0,0 2.229,-1.521 5.337,-0.933 0,0 -1.305,-10.659 -8.089,-15.503 -0.981,-2.002 -3.299,-3.758 -3.299,-3.758 z" />
      </g>
      <g
         transform="matrix(0.35277777,0,0,-0.35277777,196.70457,165.28957)"
         id="g1538">
        <path
           id="path1540"
           style="fill:#278ed7;fill-opacity:1;fill-rule:nonzero;stroke:none"
           d="m 0,0 c 0.012,0.306 -0.464,1.363 -0.443,1.672 1.341,19.531 -7.795,28.116 -8.846,29.035 l 0.282,4.326 c -1.757,-1.907 -3.237,-4.255 -5.139,-5.798 -11.939,-9.691 -30.518,-8.871 -42.555,0.697 -4.432,3.523 -5.481,6.136 -5.481,6.136 l 0.819,-7.723 c 0,0 -7.614,-10.707 -8.911,-24.961 -0.092,-1.011 -0.895,-1.769 -0.919,-2.814 -0.012,-0.587 1.026,-1.409 1.041,-1.879 0.03,-0.959 -0.77,-1.896 -0.671,-2.449 0.24,-1.344 1.174,-1.409 1.174,-1.409 0,0 0.919,-0.671 2.785,-0.335 2.414,0.434 2.656,1.383 2.656,1.383 0,0 -0.177,1.575 -0.342,3.985 -0.716,10.454 4.395,13.954 4.395,13.954 l 3.339,-30.098 c 0,0 3.908,-6.852 23.654,-6.43 18.06,0.386 20.876,7.518 20.876,7.518 l 1.923,29.454 c 3.566,-5.893 3.907,-11.921 3.193,-17.073 -0.061,-0.439 3.3,-1.866 6.137,-0.672 0.128,0.054 0.606,0.523 0.63,0.88 0.05,0.739 -0.385,0.942 -0.453,1.346 C -0.931,-0.809 -0.019,-0.467 0,0" />
      </g>
      <g
         transform="matrix(0.35277777,0,0,-0.35277777,176.68355,171.82436)"
         id="g1542">
        <path
           id="path1544"
           style="fill:#fcd7ad;fill-opacity:1;fill-rule:nonzero;stroke:none"
           d="m 0,0 c 0,0 2.182,-0.996 3.077,-1.801 0,0 1.007,-4.048 -0.939,-6.531 0,0 -2.542,1.134 -3.834,3.726 0,0 0.982,1.588 1.247,2.149 C 0.031,-1.438 0,0 0,0" />
      </g>
      <g
         transform="matrix(0.35277777,0,0,-0.35277777,172.52461,165.75129)"
         id="g1546">
        <path
           id="path1548"
           style="fill:#1f72ad;fill-opacity:1;fill-rule:nonzero;stroke:none"
           d="M 0,0 C 0,0 0.972,-0.839 2.147,-0.503 2.147,-0.503 0.604,-2.047 0,0" />
      </g>
      <g
         transform="matrix(0.35277777,0,0,-0.35277777,174.05355,166.74277)"
         id="g1550">
        <path
           id="path1552"
           style="fill:#fcd7ad;fill-opacity:1;fill-rule:nonzero;stroke:none"
           d="m 0,0 c 0,0 -0.36,-8.906 7.455,-14.404 0,0 0.378,-3.535 -1.696,-4.607 0,0 -7.919,4.932 -10.678,17.721 0,0 3.05,-0.763 4.919,1.29" />
      </g>
      <g
         transform="matrix(0.35277777,0,0,-0.35277777,195.79303,165.08849)"
         id="g1554">
        <path
           id="path1556"
           style="fill:#1f72ad;fill-opacity:1;fill-rule:nonzero;stroke:none"
           d="m 0,0 c 0,0 -1.745,-0.436 -2.449,0 0,0 1.141,-1.074 2.449,0" />
      </g>
      <g
         transform="matrix(0.35277777,0,0,-0.35277777,181.74171,182.19031)"
         id="g1558">
        <path
           id="path1560"
           style="fill:#595a5a;fill-opacity:1;fill-rule:nonzero;stroke:none"
           d="m 0,0 c 0,0 -2.276,-0.979 -6.148,-0.979 0,0 -3.132,0.009 -4.809,0.962 l -0.169,0.808 c 0,0 -1.733,-0.406 -1.285,-2.866 0.447,-2.46 3.109,-3.154 6.665,-3.266 3.453,-0.107 5.95,1.209 6.397,2.774 C 1.098,-1.002 0,0 0,0" />
      </g>
      <g
         transform="matrix(0.35277777,0,0,-0.35277777,191.49792,181.69706)"
         id="g1562">
        <path
           id="path1564"
           style="fill:#595a5a;fill-opacity:1;fill-rule:nonzero;stroke:none"
           d="m 0,0 c 0,0 0.505,0.005 0.73,-0.767 0.373,-1.287 -0.202,-2.774 -0.202,-2.774 0,0 -0.179,-0.558 -1.208,-0.916 -0.835,-0.291 -2.549,-0.805 -4.66,-0.686 -1.58,0.089 -4.123,0.379 -4.689,2.676 -0.373,1.519 -0.129,2.353 0.068,2.215 0.196,-0.139 0.102,-0.074 0.102,-0.074 0,0 1.648,-1.425 4.729,-1.228 2.767,0.177 5.099,1.302 5.099,1.302 z" />
      </g>
      <g
         transform="matrix(0.35277777,0,0,-0.35277777,177.84076,184.25967)"
         id="g1566">
        <path
           id="path1568"
           style="fill:#7e1416;fill-opacity:1;fill-rule:nonzero;stroke:none"
           d="m 0,0 c -0.029,0.147 0.872,0.201 1.443,-0.806 0.57,-1.006 0.771,-2.449 2.449,-2.382 1.677,0.068 2.08,1.476 2.986,1.946 0.906,0.47 0.973,0.168 0.939,-0.536 C 7.784,-2.483 7.414,-2.651 7.481,-3.993 7.548,-5.335 7.649,-5.972 7.112,-6.475 6.576,-6.979 6.298,-6.744 5.212,-7.214 4.127,-7.683 1.845,-8.757 0.302,-9.931 c -1.544,-1.174 -5.737,-1.006 -6.542,1.476 -0.806,2.483 1.107,3.758 2.885,4.127 C -1.577,-3.959 0.335,-1.678 0,0" />
      </g>
      <g
         transform="matrix(0.35277777,0,0,-0.35277777,191.56604,183.5243)"
         id="g1570">
        <path
           id="path1572"
           style="fill:#7e1416;fill-opacity:1;fill-rule:nonzero;stroke:none"
           d="m 0,0 c 0.029,0.148 -0.872,0.201 -1.443,-0.805 -0.57,-1.007 -0.771,-2.449 -2.449,-2.382 -1.677,0.067 -2.08,1.476 -2.986,1.945 -0.905,0.471 -0.973,0.168 -0.939,-0.536 0.034,-0.704 0.403,-0.872 0.335,-2.215 -0.066,-1.341 -0.167,-1.979 0.37,-2.482 0.536,-0.503 0.814,-0.269 1.9,-0.738 1.085,-0.47 3.367,-1.543 4.91,-2.718 1.543,-1.174 5.737,-1.006 6.542,1.476 0.806,2.483 -1.107,3.758 -2.885,4.127 C 1.577,-3.959 -0.335,-1.677 0,0" />
      </g>
      <g
         transform="matrix(0.35277777,0,0,-0.35277777,178.47188,183.92407)"
         id="g1574">
        <path
           id="path1576"
           style="fill:#231f20;fill-opacity:1;fill-rule:nonzero;stroke:none"
           d="m 0,0 -0.09,-2.274 c 0,0 0.415,-1.783 2.042,-1.866 1.627,-0.083 2.319,1.357 2.728,1.652 l 0.409,0.295 0.232,1.845 C 5.321,-0.348 2.74,-0.651 0,0" />
      </g>
      <g
         transform="matrix(0.35277777,0,0,-0.35277777,190.97468,183.3585)"
         id="g1578">
        <path
           id="path1580"
           style="fill:#231f20;fill-opacity:1;fill-rule:nonzero;stroke:none"
           d="m 0,0 0.063,-1.606 c 0,0 -0.536,-1.961 -2.033,-2.07 -1.434,-0.103 -2.248,1.172 -2.714,1.569 -0.384,0.327 -0.461,0.324 -0.461,0.324 v 1.477 c 0,0 2.292,-0.47 5.145,0.306" />
      </g>
      <g
         transform="matrix(0.35277777,0,0,-0.35277777,176.70157,171.37721)"
         id="g1582">
        <path
           id="path1584"
           style="fill:#404041;fill-opacity:1;fill-rule:nonzero;stroke:none"
           d="m 0,0 c 0,0 5.611,-6.155 23.157,-5.954 0,0 15.444,0 21.093,8.02 l -0.98,-17.339 -1.336,-14.289 c 0,0 -1.412,-1.47 -5.022,-1.497 -1.567,-0.011 -3.308,0.305 -4.931,1.553 0,0 -2.214,12.112 -8.32,17.446 0,0 -7.935,-6.512 -9.394,-18.758 0,0 -6.442,-2.117 -11.004,0 z" />
      </g>
      <g
         transform="matrix(0.35277777,0,0,-0.35277777,193.52015,152.56558)"
         id="g1586">
        <path
           id="path1588"
           style="fill:#c3996b;fill-opacity:1;fill-rule:nonzero;stroke:none"
           d="m 0,0 c 0,0 -8.098,-34.6 -50.721,-51.927 1.043,-1.116 2.099,-2.106 3.19,-2.756 0,0 38.813,15.417 47.054,46.465 z" />
      </g>
      <g
         transform="matrix(0.35277777,0,0,-0.35277777,176.00833,175.13539)"
         id="g1590">
        <path
           id="path1592"
           style="fill:#a26f3a;fill-opacity:1;fill-rule:nonzero;stroke:none"
           d="m 0,0 c 0,0 -0.671,-4.924 -4.514,-6.931 0,0 3.488,3.464 4.514,6.931" />
      </g>
      <g
         transform="matrix(0.35277777,0,0,-0.35277777,179.82045,144.16965)"
         id="g1594">
        <path
           id="path1596"
           style="fill:#3a4d57;fill-opacity:1;fill-rule:nonzero;stroke:none"
           d="m 0,0 c 0.503,1.684 1.608,1.973 2.702,0.265 0.945,-1.473 0.307,-3.092 0.048,-4.672 0,0 -0.096,-0.356 -0.169,-0.452 C 0.943,-7.019 -0.526,-1.758 0,0" />
      </g>
      <g
         transform="matrix(0.35277777,0,0,-0.35277777,189.65938,144.16965)"
         id="g1598">
        <path
           id="path1600"
           style="fill:#3a4d57;fill-opacity:1;fill-rule:nonzero;stroke:none"
           d="m 0,0 c 0.503,1.684 1.608,1.973 2.702,0.265 0.948,-1.478 0.324,-3.646 0.045,-4.688 0,0 -0.157,-0.43 -0.257,-0.54 C 0.8,-6.816 -0.518,-1.732 0,0" />
      </g>
      <g
         transform="matrix(0.35277777,0,0,-0.35277777,189.15862,140.44633)"
         id="g1602">
        <path
           id="path1604"
           style="fill:#e09d39;fill-opacity:1;fill-rule:nonzero;stroke:none"
           d="M 0,0 C 0,0 0.143,0.052 0.409,0.098 0.664,0.17 1.067,0.169 1.499,0.241 1.716,0.275 1.956,0.291 2.207,0.297 2.463,0.308 2.712,0.295 2.857,0.253 2.983,0.204 3.084,0.131 3.32,0.019 3.566,-0.11 3.816,-0.242 4.066,-0.374 4.583,-0.615 5.083,-0.886 5.58,-1.102 6.067,-1.333 6.572,-1.488 6.974,-1.678 7.378,-1.863 7.777,-1.95 8.023,-2.06 c 0.269,-0.083 0.423,-0.131 0.423,-0.131 0,0 -0.076,0.143 -0.208,0.394 C 8.079,-1.576 7.893,-1.199 7.574,-0.855 7.252,-0.518 6.893,-0.084 6.426,0.272 5.971,0.646 5.425,0.954 4.874,1.248 4.586,1.378 4.31,1.498 4.007,1.612 3.708,1.735 3.243,1.846 2.805,1.768 2.389,1.705 2.113,1.534 1.878,1.401 1.643,1.258 1.42,1.123 1.215,0.998 0.807,0.757 0.533,0.44 0.319,0.28 0.118,0.094 0,0 0,0" />
      </g>
      <g
         transform="matrix(0.35277777,0,0,-0.35277777,181.24994,140.44633)"
         id="g1606">
        <path
           id="path1608"
           style="fill:#e09d39;fill-opacity:1;fill-rule:nonzero;stroke:none"
           d="M 0,0 C 0,0 -0.118,0.094 -0.319,0.28 -0.532,0.44 -0.807,0.757 -1.215,0.999 -1.42,1.123 -1.643,1.259 -1.878,1.402 -2.112,1.534 -2.388,1.706 -2.805,1.769 -3.243,1.847 -3.708,1.736 -4.008,1.613 -4.31,1.498 -4.586,1.378 -4.874,1.248 -5.426,0.955 -5.971,0.646 -6.427,0.273 -6.893,-0.083 -7.253,-0.518 -7.574,-0.856 -7.893,-1.199 -8.08,-1.575 -8.238,-1.797 c -0.133,-0.251 -0.208,-0.394 -0.208,-0.394 0,0 0.154,0.048 0.422,0.132 0.246,0.11 0.646,0.196 1.05,0.38 0.402,0.191 0.907,0.346 1.394,0.577 0.496,0.217 0.997,0.487 1.514,0.728 0.25,0.132 0.5,0.264 0.746,0.394 0.235,0.112 0.337,0.185 0.463,0.234 0.145,0.042 0.394,0.055 0.65,0.044 C -1.955,0.292 -1.716,0.276 -1.498,0.241 -1.067,0.169 -0.664,0.17 -0.409,0.099 -0.143,0.052 0,0 0,0" />
      </g>
      <g
         transform="matrix(0.35277777,0,0,-0.35277777,186.36515,148.56642)"
         id="g1610">
        <path
           id="path1612"
           style="fill:#d6b07d;fill-opacity:1;fill-rule:nonzero;stroke:none"
           d="M 0,0 C 0.001,-0.01 -0.085,0.022 -0.235,0.081 -0.384,0.113 -0.598,0.21 -0.85,0.262 -1.101,0.303 -1.396,0.396 -1.707,0.432 -2.019,0.482 -2.348,0.495 -2.678,0.513 -3.006,0.504 -3.335,0.504 -3.642,0.452 -3.95,0.418 -4.237,0.302 -4.485,0.241 -4.732,0.188 -4.94,0.04 -5.086,-0.028 c -0.146,-0.093 -0.23,-0.146 -0.23,-0.146 0,0 0.083,-0.055 0.227,-0.151 0.145,-0.07 0.353,-0.223 0.605,-0.276 0.251,-0.06 0.545,-0.171 0.861,-0.196 0.316,-0.042 0.653,-0.027 0.989,-0.015 0.335,0.041 0.67,0.081 0.981,0.162 0.312,0.069 0.598,0.194 0.845,0.269 0.246,0.084 0.446,0.211 0.588,0.265 C -0.08,-0.035 -0.001,0.01 0,0" />
      </g>
      <g
         transform="matrix(0.35277777,0,0,-0.35277777,28.978176,233.3373)"
         id="g1614">
        <g
           id="g1616" />
        <g
           id="g1628">
          <g
             id="g1626"
             clip-path="url(#clipPath1620)">
            <g
               id="g1624"
               transform="translate(445.5679,242.6297)">
              <path
                 id="path1622"
                 style="fill:#d6b07d;fill-opacity:1;fill-rule:nonzero;stroke:none"
                 d="m 0,0 c 0,0 0.017,0.099 0.046,0.273 0.005,0.166 0.061,0.414 0.051,0.69 -0.013,0.276 0.019,0.606 -0.011,0.942 -0.015,0.34 -0.067,0.694 -0.11,1.05 -0.064,0.352 -0.118,0.706 -0.204,1.035 -0.07,0.331 -0.199,0.636 -0.269,0.903 -0.071,0.267 -0.199,0.488 -0.253,0.645 -0.08,0.157 -0.125,0.247 -0.125,0.247 0,0 -0.038,-0.094 -0.104,-0.257 C -1.019,5.365 -1.125,5.128 -1.157,4.847 -1.19,4.565 -1.26,4.232 -1.259,3.879 -1.271,3.525 -1.23,3.152 -1.188,2.779 -1.118,2.41 -1.045,2.042 -0.929,1.707 -0.824,1.37 -0.66,1.072 -0.545,0.813 -0.431,0.554 -0.261,0.358 -0.175,0.215 -0.064,0.078 0,0 0,0" />
            </g>
          </g>
        </g>
      </g>
      <g
         transform="matrix(0.35277777,0,0,-0.35277777,28.978176,233.3373)"
         id="g1630">
        <g
           id="g1632" />
        <g
           id="g1648">
          <g
             id="g1646"
             clip-path="url(#clipPath1636)">
            <g
               id="g1640"
               transform="translate(437.5661,254.3203)">
              <path
                 id="path1638"
                 style="fill:#f6e9d7;fill-opacity:1;fill-rule:nonzero;stroke:none"
                 d="m 0,0 c 0,0 0.023,0.169 0.082,0.476 0.019,0.3 0.108,0.748 0.079,1.276 -0.03,0.525 -0.034,1.164 -0.176,1.824 -0.12,0.668 -0.378,1.346 -0.677,2.007 -0.336,0.641 -0.752,1.241 -1.225,1.732 -0.463,0.517 -1.056,0.878 -1.57,1.138 -0.519,0.274 -1.051,0.28 -1.369,0.284 -0.341,-0.041 -0.51,-0.097 -0.51,-0.097 0,0 0.166,-0.086 0.391,-0.292 0.243,-0.164 0.491,-0.505 0.777,-0.842 0.295,-0.343 0.53,-0.831 0.838,-1.31 C -3.061,5.695 -2.742,5.162 -2.424,4.629 -2.073,4.112 -1.779,3.56 -1.466,3.045 -1.174,2.522 -0.863,2.025 -0.674,1.567 -0.478,1.112 -0.278,0.725 -0.178,0.443 -0.057,0.165 0,0 0,0" />
            </g>
            <g
               id="g1644"
               transform="translate(447.4559,229.0212)">
              <path
                 id="path1642"
                 style="fill:#eaa560;fill-opacity:1;fill-rule:nonzero;stroke:none"
                 d="m 0,0 c 0,0 -0.719,0.653 -2.331,0.614 -2.625,-0.064 -7.015,-0.166 -7.966,0.028 -1.536,0.313 -2.878,1.432 -2.878,1.432 0,0 0.671,-1.924 3.31,-2.058 C -7.225,-0.119 0,0 0,0" />
            </g>
          </g>
        </g>
      </g>
      <g
         transform="matrix(0.35277777,0,0,-0.35277777,28.978176,233.3373)"
         id="g1650">
        <g
           id="g1652" />
        <g
           id="g1664">
          <g
             id="g1662"
             clip-path="url(#clipPath1656)">
            <g
               id="g1660"
               transform="translate(447.0294,254.9112)">
              <path
                 id="path1658"
                 style="fill:#f6e9d7;fill-opacity:1;fill-rule:nonzero;stroke:none"
                 d="m 0,0 c 0,0 0.047,0.171 0.16,0.457 0.036,0.146 0.124,0.314 0.215,0.504 0.084,0.192 0.187,0.401 0.3,0.626 0.199,0.459 0.566,0.929 0.906,1.42 0.373,0.479 0.773,0.963 1.197,1.417 0.417,0.462 0.866,0.879 1.268,1.307 0.431,0.386 0.796,0.839 1.191,1.128 0.191,0.155 0.362,0.312 0.52,0.455 0.154,0.148 0.293,0.285 0.42,0.366 0.243,0.223 0.381,0.35 0.381,0.35 0,0 -0.189,0.022 -0.519,0.059 C 5.876,8.088 5.674,8.09 5.443,8.073 5.209,8.062 4.947,8.029 4.684,7.936 4.148,7.775 3.508,7.552 2.913,7.157 2.308,6.775 1.773,6.222 1.304,5.628 0.871,5.004 0.517,4.33 0.297,3.661 0.077,2.99 -0.016,2.34 -0.072,1.797 -0.144,1.255 -0.078,0.792 -0.055,0.484 -0.009,0.171 0,0 0,0" />
            </g>
          </g>
        </g>
      </g>
      <g
         transform="matrix(0.35277777,0,0,-0.35277777,28.978176,233.3373)"
         id="g1666">
        <g
           id="g1668" />
        <g
           id="g1680">
          <g
             id="g1678"
             clip-path="url(#clipPath1672)">
            <g
               id="g1676"
               transform="translate(428.8773,253.7265)">
              <path
                 id="path1674"
                 style="fill:#5d6670;fill-opacity:1;fill-rule:nonzero;stroke:none"
                 d="m 0,0 c 0.011,-0.005 -0.042,-0.036 -0.137,-0.092 -0.074,-0.065 -0.215,-0.146 -0.316,-0.275 -0.1,-0.129 -0.251,-0.273 -0.346,-0.453 -0.103,-0.177 -0.17,-0.382 -0.233,-0.588 -0.039,-0.211 -0.075,-0.424 -0.057,-0.629 0.002,-0.203 0.084,-0.398 0.121,-0.558 0.037,-0.16 0.136,-0.294 0.175,-0.384 0.061,-0.091 0.096,-0.142 0.096,-0.142 0,0 0.038,0.049 0.104,0.135 0.045,0.085 0.156,0.203 0.219,0.343 0.058,0.142 0.182,0.296 0.236,0.467 0.074,0.168 0.11,0.351 0.157,0.533 0.027,0.187 0.062,0.372 0.067,0.556 0.017,0.18 -0.023,0.371 -0.015,0.524 C 0.075,-0.41 0.03,-0.258 0.026,-0.162 0.002,-0.057 -0.011,0.005 0,0" />
            </g>
          </g>
        </g>
      </g>
      <g
         transform="matrix(0.35277777,0,0,-0.35277777,28.978176,233.3373)"
         id="g1682">
        <g
           id="g1684" />
        <g
           id="g1696">
          <g
             id="g1694"
             clip-path="url(#clipPath1688)">
            <g
               id="g1692"
               transform="translate(456.7125,253.6794)">
              <path
                 id="path1690"
                 style="fill:#5d6670;fill-opacity:1;fill-rule:nonzero;stroke:none"
                 d="m 0,0 c 0.011,-0.005 -0.042,-0.036 -0.137,-0.092 -0.074,-0.065 -0.215,-0.146 -0.316,-0.275 -0.1,-0.129 -0.251,-0.273 -0.346,-0.453 -0.103,-0.177 -0.17,-0.382 -0.233,-0.588 -0.039,-0.211 -0.075,-0.424 -0.058,-0.629 0.003,-0.203 0.084,-0.398 0.122,-0.558 0.037,-0.16 0.136,-0.294 0.175,-0.384 0.061,-0.091 0.096,-0.142 0.096,-0.142 0,0 0.038,0.049 0.104,0.135 0.045,0.085 0.156,0.203 0.219,0.343 0.058,0.142 0.182,0.296 0.236,0.467 0.074,0.168 0.11,0.351 0.157,0.533 0.027,0.187 0.062,0.372 0.067,0.556 0.017,0.18 -0.023,0.371 -0.015,0.524 C 0.075,-0.41 0.03,-0.258 0.026,-0.162 0.002,-0.057 -0.011,0.005 0,0" />
            </g>
          </g>
        </g>
      </g>
      <g
         transform="matrix(0.35277777,0,0,-0.35277777,183.09119,149.04151)"
         id="g1698">
        <path
           id="path1700"
           style="fill:#faaf40;fill-opacity:1;fill-rule:nonzero;stroke:none"
           d="m 0,0 c 0,0 -2.998,-0.701 -5.28,-3.317 -2.281,-2.617 -7.515,-1.342 -9.796,1.006 0,0 1.14,-8.051 10.669,-8.655 9.528,-0.604 11.473,4.697 11.473,4.697 0,0 1.678,-4.745 9.931,-4.161 7.767,0.55 9.595,8.522 9.595,8.522 0,0 -2.281,-3.355 -6.576,-2.751 -4.294,0.604 -3.997,3.93 -7.866,4.23 0,0 -4.033,-1.144 -12.15,0.429" />
      </g>
      <g
         transform="matrix(0.35277777,0,0,-0.35277777,187.17784,153.46263)"
         id="g1702">
        <path
           id="path1704"
           style="fill:#faaf40;fill-opacity:1;fill-rule:nonzero;stroke:none"
           d="m 0,0 c 0,0 -3.981,-0.76 -8.052,-0.09 l 4.563,-3.086 z" />
      </g>
      <g
         transform="matrix(0.35277777,0,0,-0.35277777,174.80102,142.2354)"
         id="g1706">
        <path
           id="path1708"
           style="fill:#000000;fill-opacity:1;fill-rule:nonzero;stroke:none"
           d="m 0,0 -2.577,0.254 c 0,0 -0.332,-2.35 -0.141,-4.01 l 2.715,-0.18 c 0,0 -0.379,1.587 -0.084,3.592 z" />
      </g>
      <g
         transform="matrix(0.35277777,0,0,-0.35277777,193.82671,142.15642)"
         id="g1710">
        <path
           id="path1712"
           style="fill:#000000;fill-opacity:1;fill-rule:nonzero;stroke:none"
           d="M 0,0 0.973,0.362 0.734,-3.048 0,-3.355 c 0,0 0.477,1.407 0,3.355" />
      </g>
      <g
         transform="matrix(0.35277777,0,0,-0.35277777,192.47088,146.61429)"
         id="g1714">
        <path
           id="path1716"
           style="fill:#404041;fill-opacity:1;fill-rule:nonzero;stroke:none"
           d="m 0,0 c -0.967,-1.444 -2.811,-3.03 -5.87,-3.423 -2.067,-0.265 -4.555,-0.12 -6.53,0.671 -3.864,1.546 -5.257,8.499 -5.257,8.499 0,0.831 0.099,2.418 0.459,3.177 0.89,1.875 4.068,1.831 5.806,2.156 1.682,0.314 3.394,0.418 5.102,0.46 1.558,0.039 3.463,0.311 4.982,-0.088 C 0.11,11.079 1.435,9.305 1.556,6.664 1.692,3.681 1.003,1.498 0,0 m -27.498,4.092 c -0.287,-1.681 -1.616,-5.917 -5.234,-7.112 -5.503,-1.819 -9.617,-0.179 -9.617,-0.179 -4.229,1.086 -5.466,10.768 -4.571,12.647 0.894,1.878 3.587,1.847 8.91,1.847 5.323,0 8.499,-0.985 8.499,-0.985 2.729,-0.805 2.326,-4.384 2.013,-6.218 m 31.341,8.544 c -1.473,0.233 -3.561,0.078 -4.604,0.095 -3.761,0.061 -7.818,0.028 -11.461,-0.569 -1.921,-0.314 -3.597,-0.574 -5.586,-0.867 l -3.834,-0.216 c -3.685,0.181 -7.328,0.35 -7.328,0.35 -9.976,2.102 -15.256,0.939 -16.508,0.984 -1.253,0.045 -4.609,0 -4.609,0 -0.537,-2.058 -0.135,-3.847 0,-3.936 0.134,-0.09 0.849,-0.806 1.386,-1.656 0.537,-0.85 0.654,-3.243 1.505,-6.061 0.396,-1.314 1.298,-2.735 2.253,-3.601 1.093,-0.993 2.426,-1.505 3.309,-1.691 1.656,-0.349 6.791,-0.712 9.967,0.764 3.176,1.476 4.616,4.684 5.824,7.95 1.208,3.265 3.489,3.444 3.489,3.444 0,0 2.416,0.179 3.713,-3.131 1.297,-3.31 2.997,-5.86 2.997,-5.86 2.281,-3.713 7.336,-3.221 10.11,-3.042 2.774,0.179 4.585,1.476 6.173,3.579 1.55,2.052 2.013,8.007 2.147,8.947 0.134,0.939 1.057,1.163 1.057,1.163 0.476,1.387 0,3.354 0,3.354" />
      </g>
      <g
         transform="matrix(0.35277777,0,0,-0.35277777,173.98413,145.71136)"
         id="g1718">
        <path
           id="path1720"
           style="fill:#faaf40;fill-opacity:1;fill-rule:nonzero;stroke:none"
           d="m 0,0 c 1.449,-0.025 1.454,14.667 1.512,17.267 0.09,4.026 3.4,9.662 11.989,9.752 8.588,0.09 11.541,-3.668 19.772,-3.937 8.23,-0.268 10.378,5.1 16.909,4.921 6.53,-0.179 7.649,-7.604 6.871,-19.773 0,0 5.475,8.42 4.67,19.778 0,0 2.056,3.663 0.893,13.146 0,0 -0.968,-3.4 -4.913,-4.921 0,0 7.577,8.931 -0.365,21.29 0,0 -0.761,-8.876 -6.873,-12.683 0,0 0.7,5.35 -0.642,10.002 0,0 -0.648,-6.44 -5.503,-8.702 -0.307,2.174 -1.209,6.616 -2.439,9.114 0,0 -0.021,-4.088 -3.108,-7.16 -0.332,2.002 -0.907,4.415 -1.906,6.444 0,0 -0.019,-3.486 -2.448,-6.438 C 31.67,48.151 28.043,47.95 23.312,47.238 10.82,45.36 -3.737,36.699 -4.034,20.756 c 0,0 0.527,-8.94 3.394,-14.713 0,0 0.328,-3.098 0.64,-6.043" />
      </g>
      <g
         transform="matrix(0.35277777,0,0,-0.35277777,28.978176,233.3373)"
         id="g1722">
        <g
           id="g1724" />
        <g
           id="g1736">
          <g
             id="g1734"
             clip-path="url(#clipPath1728)">
            <g
               id="g1732"
               transform="translate(418.8607,276.4453)">
              <path
                 id="path1730"
                 style="fill:#3b4d57;fill-opacity:1;fill-rule:nonzero;stroke:none"
                 d="m 0,0 c 0,0 0.006,0.046 0.017,0.135 0.009,0.09 0.027,0.222 0.059,0.393 0.063,0.343 0.183,0.846 0.447,1.448 0.529,1.207 1.629,2.756 3.201,4.359 1.574,1.601 3.634,3.286 6.135,4.619 2.49,1.357 5.423,2.237 8.363,2.799 2.953,0.526 5.922,0.79 8.685,1.046 2.761,0.262 5.331,0.515 7.492,0.973 2.159,0.451 3.924,0.988 5.126,1.47 0.603,0.233 1.055,0.469 1.374,0.606 0.316,0.146 0.485,0.223 0.485,0.223 0,0 -0.16,-0.093 -0.461,-0.266 -0.305,-0.167 -0.736,-0.447 -1.317,-0.743 -1.171,-0.565 -2.89,-1.336 -5.072,-1.88 C 32.359,14.626 29.772,14.195 27.006,13.876 24.241,13.538 21.294,13.271 18.407,12.744 15.522,12.223 12.706,11.401 10.259,10.176 7.812,8.957 5.703,7.458 4.097,5.952 2.497,4.443 1.259,3.051 0.675,1.902 0.363,1.34 0.201,0.855 0.11,0.521 0.064,0.353 0.038,0.223 0.024,0.134 0.008,0.046 0,0 0,0" />
            </g>
          </g>
        </g>
      </g>
      <g
         transform="matrix(0.35277777,0,0,-0.35277777,28.978176,233.3373)"
         id="g1738">
        <g
           id="g1740" />
        <g
           id="g1752">
          <g
             id="g1750"
             clip-path="url(#clipPath1744)">
            <g
               id="g1748"
               transform="translate(419.2729,283.8002)">
              <path
                 id="path1746"
                 style="fill:#3b4d57;fill-opacity:1;fill-rule:nonzero;stroke:none"
                 d="M 0,0 C 0,0 0.131,0.16 0.359,0.44 0.596,0.713 0.92,1.12 1.355,1.566 1.783,2.019 2.301,2.533 2.896,3.041 3.49,3.55 4.162,4.046 4.853,4.516 5.557,4.966 6.28,5.387 6.99,5.718 7.698,6.053 8.387,6.303 8.98,6.5 c 0.589,0.207 1.108,0.3 1.46,0.385 0.36,0.065 0.565,0.101 0.565,0.101 0,0 -0.183,-0.099 -0.503,-0.273 C 10.177,6.557 9.73,6.291 9.186,6.013 8.636,5.742 8.024,5.371 7.357,5.01 6.698,4.63 5.994,4.231 5.304,3.806 4.61,3.388 3.933,2.94 3.301,2.513 2.679,2.072 2.083,1.673 1.601,1.292 1.114,0.917 0.704,0.604 0.434,0.366 0.158,0.133 0,0 0,0" />
            </g>
          </g>
        </g>
      </g>
      <g
         transform="matrix(0.35277777,0,0,-0.35277777,28.978176,233.3373)"
         id="g1754">
        <g
           id="g1756" />
        <g
           id="g1768">
          <g
             id="g1766"
             clip-path="url(#clipPath1760)">
            <g
               id="g1764"
               transform="translate(419.6084,286.0174)">
              <path
                 id="path1762"
                 style="fill:#3b4d57;fill-opacity:1;fill-rule:nonzero;stroke:none"
                 d="M 0,0 C 0,0 0.054,0.067 0.156,0.192 0.259,0.316 0.4,0.509 0.601,0.734 0.998,1.189 1.59,1.831 2.404,2.491 3.225,3.138 4.235,3.844 5.41,4.439 c 1.171,0.603 2.498,1.08 3.849,1.455 1.356,0.35 2.732,0.599 4.029,0.734 1.296,0.143 2.511,0.162 3.547,0.183 1.037,0.019 1.902,-0.038 2.505,-0.05 0.604,-0.03 0.949,-0.048 0.949,-0.048 0,0 -0.341,-0.051 -0.939,-0.142 C 18.751,6.498 17.898,6.353 16.876,6.23 15.853,6.108 14.667,5.925 13.406,5.734 12.145,5.534 10.809,5.301 9.499,4.965 8.186,4.648 6.907,4.212 5.735,3.734 4.565,3.251 3.503,2.712 2.651,2.151 1.795,1.597 1.117,1.068 0.681,0.656 0.45,0.462 0.29,0.288 0.174,0.176 0.061,0.061 0,0 0,0" />
            </g>
          </g>
        </g>
      </g>
      <g
         transform="matrix(0.35277777,0,0,-0.35277777,28.978176,233.3373)"
         id="g1770">
        <g
           id="g1772" />
        <g
           id="g1784">
          <g
             id="g1782"
             clip-path="url(#clipPath1776)">
            <g
               id="g1780"
               transform="translate(419.4528,289.8011)">
              <path
                 id="path1778"
                 style="fill:#3b4d57;fill-opacity:1;fill-rule:nonzero;stroke:none"
                 d="m 0,0 c 0,0 0.077,0.137 0.212,0.377 0.143,0.233 0.339,0.581 0.634,0.953 0.287,0.379 0.643,0.81 1.069,1.234 0.429,0.42 0.942,0.809 1.473,1.17 0.545,0.338 1.113,0.642 1.675,0.857 0.561,0.218 1.11,0.348 1.579,0.439 0.466,0.103 0.871,0.107 1.146,0.126 0.277,0 0.436,0 0.436,0 0,0 -0.147,-0.058 -0.405,-0.159 C 7.56,4.913 7.203,4.749 6.776,4.578 6.345,4.418 5.873,4.159 5.361,3.919 4.857,3.657 4.324,3.377 3.809,3.062 3.29,2.752 2.796,2.404 2.331,2.073 1.878,1.729 1.44,1.412 1.108,1.09 0.768,0.779 0.48,0.513 0.298,0.311 0.108,0.113 0,0 0,0" />
            </g>
          </g>
        </g>
      </g>
      <g
         transform="matrix(0.35277777,0,0,-0.35277777,28.978176,233.3373)"
         id="g1786">
        <g
           id="g1788" />
        <g
           id="g1800">
          <g
             id="g1798"
             clip-path="url(#clipPath1792)">
            <g
               id="g1796"
               transform="translate(457.0526,280.2389)">
              <path
                 id="path1794"
                 style="fill:#3b4d57;fill-opacity:1;fill-rule:nonzero;stroke:none"
                 d="m 0,0 c 0,0 0.241,0.124 0.663,0.342 0.214,0.099 0.458,0.253 0.738,0.426 0.283,0.167 0.596,0.364 0.928,0.593 0.685,0.421 1.416,1.013 2.187,1.643 0.755,0.652 1.523,1.385 2.238,2.167 0.713,0.783 1.367,1.615 1.951,2.419 0.557,0.821 1.097,1.585 1.47,2.294 0.199,0.348 0.376,0.671 0.53,0.961 0.161,0.287 0.301,0.539 0.393,0.756 0.218,0.425 0.342,0.668 0.342,0.668 0,0 -0.055,-0.268 -0.151,-0.737 C 11.236,11.298 11.161,11.017 11.063,10.697 10.972,10.374 10.855,10.013 10.686,9.637 10.377,8.872 9.952,8.001 9.402,7.121 8.845,6.246 8.151,5.38 7.403,4.565 6.626,3.777 5.793,3.047 4.953,2.443 4.105,1.85 3.272,1.365 2.534,1.004 2.169,0.815 1.821,0.67 1.51,0.55 1.202,0.423 0.93,0.324 0.704,0.247 0.256,0.09 0,0 0,0" />
            </g>
          </g>
        </g>
      </g>
      <g
         transform="matrix(0.35277777,0,0,-0.35277777,28.978176,233.3373)"
         id="g1802">
        <g
           id="g1804" />
        <g
           id="g1816">
          <g
             id="g1814"
             clip-path="url(#clipPath1808)">
            <g
               id="g1812"
               transform="translate(443.7698,276.4968)">
              <path
                 id="path1810"
                 style="fill:#3b4d57;fill-opacity:1;fill-rule:nonzero;stroke:none"
                 d="m 0,0 c 0,0 0.25,0.181 0.687,0.496 0.225,0.148 0.473,0.362 0.757,0.605 0.29,0.236 0.607,0.512 0.939,0.83 0.685,0.61 1.394,1.415 2.166,2.26 0.755,0.863 1.542,1.803 2.321,2.754 0.789,0.944 1.578,1.894 2.362,2.751 0.787,0.855 1.567,1.615 2.272,2.226 0.342,0.316 0.68,0.579 0.987,0.801 0.303,0.228 0.571,0.418 0.801,0.564 0.458,0.289 0.719,0.453 0.719,0.453 0,0 -0.227,-0.208 -0.626,-0.573 -0.208,-0.169 -0.439,-0.401 -0.7,-0.669 -0.268,-0.26 -0.564,-0.559 -0.879,-0.892 C 11.156,10.959 10.475,10.129 9.723,9.264 8.984,8.38 8.196,7.437 7.408,6.495 6.604,5.559 5.79,4.625 4.973,3.796 4.154,2.968 3.337,2.246 2.596,1.68 2.236,1.385 1.885,1.141 1.566,0.937 1.254,0.725 0.975,0.551 0.737,0.421 0.268,0.153 0,0 0,0" />
            </g>
          </g>
        </g>
      </g>
      <g
         transform="matrix(0.35277777,0,0,-0.35277777,28.978176,233.3373)"
         id="g1818">
        <g
           id="g1820" />
        <g
           id="g1832">
          <g
             id="g1830"
             clip-path="url(#clipPath1824)">
            <g
               id="g1828"
               transform="translate(436.3172,275.1353)">
              <path
                 id="path1826"
                 style="fill:#3b4d57;fill-opacity:1;fill-rule:nonzero;stroke:none"
                 d="m 0,0 c 0,0 0.376,0.116 0.987,0.419 0.618,0.288 1.445,0.805 2.359,1.514 0.919,0.709 1.871,1.67 2.836,2.754 0.958,1.105 1.98,2.283 3.002,3.461 1.055,1.169 2.189,2.289 3.343,3.22 1.144,0.945 2.316,1.691 3.323,2.306 1.009,0.616 1.907,1.026 2.526,1.322 0.63,0.273 0.989,0.428 0.989,0.428 0,0 -0.339,-0.196 -0.91,-0.574 -0.58,-0.36 -1.377,-0.925 -2.32,-1.605 C 15.186,12.57 14.149,11.692 13.064,10.737 11.979,9.778 10.879,8.703 9.84,7.552 8.783,6.418 7.765,5.222 6.702,4.19 5.651,3.147 4.562,2.274 3.575,1.616 2.588,0.951 1.669,0.565 1.028,0.323 0.379,0.095 0,0 0,0" />
            </g>
          </g>
        </g>
      </g>
      <g
         transform="matrix(0.35277777,0,0,-0.35277777,28.978176,233.3373)"
         id="g1834">
        <g
           id="g1836" />
        <g
           id="g1848">
          <g
             id="g1846"
             clip-path="url(#clipPath1840)">
            <g
               id="g1844"
               transform="translate(432.9354,274.8039)">
              <path
                 id="path1842"
                 style="fill:#3b4d57;fill-opacity:1;fill-rule:nonzero;stroke:none"
                 d="m 0,0 c 0,0 0.153,0.068 0.407,0.21 0.257,0.133 0.607,0.354 1.015,0.622 0.41,0.267 0.849,0.63 1.3,1.033 C 3.173,2.271 3.63,2.729 4.083,3.2 4.545,3.661 4.992,4.147 5.438,4.582 5.876,5.026 6.327,5.406 6.713,5.729 7.094,6.058 7.46,6.277 7.7,6.443 c 0.253,0.151 0.397,0.236 0.397,0.236 0,0 -0.112,-0.123 -0.308,-0.34 C 7.59,6.127 7.334,5.798 7.01,5.426 6.694,5.045 6.325,4.601 5.931,4.125 5.532,3.65 5.085,3.157 4.617,2.674 4.141,2.2 3.629,1.752 3.108,1.382 2.592,1.005 2.058,0.73 1.601,0.512 1.142,0.294 0.73,0.183 0.449,0.103 0.163,0.037 0,0 0,0" />
            </g>
          </g>
        </g>
      </g>
      <g
         transform="matrix(0.35277777,0,0,-0.35277777,28.978176,233.3373)"
         id="g1850">
        <g
           id="g1852" />
        <g
           id="g1864">
          <g
             id="g1862"
             clip-path="url(#clipPath1856)">
            <g
               id="g1860"
               transform="translate(420.4733,275.7249)">
              <path
                 id="path1858"
                 style="fill:#3b4d57;fill-opacity:1;fill-rule:nonzero;stroke:none"
                 d="M 0,0 C 0,0 0.107,0.301 0.321,0.822 0.543,1.337 0.877,2.075 1.397,2.895 1.92,3.71 2.579,4.64 3.409,5.534 4.23,6.436 5.213,7.296 6.257,8.071 c 1.055,0.758 2.164,1.437 3.249,1.98 1.08,0.551 2.135,0.963 3.04,1.296 0.907,0.333 1.688,0.531 2.227,0.688 0.544,0.14 0.854,0.22 0.854,0.22 0,0 -0.289,-0.136 -0.797,-0.376 C 14.319,11.651 13.609,11.28 12.751,10.866 11.893,10.448 10.914,9.925 9.881,9.35 8.852,8.766 7.775,8.114 6.755,7.38 5.728,6.658 4.762,5.854 3.902,5.048 3.05,4.235 2.299,3.422 1.726,2.666 1.155,1.91 0.708,1.25 0.433,0.765 0.144,0.287 0,0 0,0" />
            </g>
          </g>
        </g>
      </g>
      <g
         transform="matrix(0.35277777,0,0,-0.35277777,28.978176,233.3373)"
         id="g1866">
        <g
           id="g1868" />
        <g
           id="g1880">
          <g
             id="g1878"
             clip-path="url(#clipPath1872)">
            <g
               id="g1876"
               transform="translate(410.4885,281.1328)">
              <path
                 id="path1874"
                 style="fill:#3b4d57;fill-opacity:1;fill-rule:nonzero;stroke:none"
                 d="m 0,0 c 0,0 -0.039,-0.039 -0.109,-0.107 -0.072,-0.059 -0.16,-0.17 -0.272,-0.279 -0.114,-0.106 -0.23,-0.249 -0.362,-0.38 -0.13,-0.134 -0.266,-0.275 -0.403,-0.416 -0.141,-0.136 -0.281,-0.272 -0.414,-0.4 -0.129,-0.132 -0.277,-0.239 -0.388,-0.348 -0.11,-0.108 -0.233,-0.185 -0.3,-0.252 -0.081,-0.062 -0.126,-0.097 -0.126,-0.097 0,0 0.002,0.058 0.007,0.16 0.019,0.095 0.022,0.248 0.083,0.404 0.056,0.158 0.126,0.347 0.24,0.525 0.11,0.18 0.262,0.347 0.419,0.507 0.168,0.149 0.352,0.28 0.538,0.379 0.186,0.099 0.376,0.162 0.536,0.21 0.159,0.051 0.305,0.059 0.398,0.078 C -0.055,-0.006 0,0 0,0" />
            </g>
          </g>
        </g>
      </g>
      <g
         transform="matrix(0.35277777,0,0,-0.35277777,28.978176,233.3373)"
         id="g1882">
        <g
           id="g1884" />
        <g
           id="g1896">
          <g
             id="g1894"
             clip-path="url(#clipPath1888)">
            <g
               id="g1892"
               transform="translate(413.3535,276.004)">
              <path
                 id="path1890"
                 style="fill:#3b4d57;fill-opacity:1;fill-rule:nonzero;stroke:none"
                 d="m 0,0 c 0.016,-0.004 -0.058,0.131 -0.237,0.063 -0.165,-0.047 -0.396,-0.206 -0.637,-0.384 -0.249,-0.177 -0.479,-0.456 -0.739,-0.742 -0.257,-0.295 -0.539,-0.605 -0.8,-0.93 -0.275,-0.314 -0.522,-0.649 -0.774,-0.952 -0.241,-0.309 -0.491,-0.589 -0.676,-0.851 -0.186,-0.26 -0.371,-0.466 -0.482,-0.623 -0.122,-0.151 -0.192,-0.238 -0.192,-0.238 0,0 0.017,0.111 0.048,0.305 0.051,0.185 0.093,0.469 0.219,0.777 0.125,0.308 0.262,0.679 0.474,1.041 0.201,0.369 0.471,0.728 0.756,1.072 0.299,0.334 0.614,0.65 0.945,0.913 0.329,0.269 0.702,0.456 1.023,0.589 0.327,0.136 0.621,0.14 0.828,0.144 C -0.007,0.161 0.011,-0.009 0,0" />
            </g>
          </g>
        </g>
      </g>
      <g
         transform="matrix(0.35277777,0,0,-0.35277777,28.978176,233.3373)"
         id="g1898">
        <g
           id="g1900" />
        <g
           id="g1912">
          <g
             id="g1910"
             clip-path="url(#clipPath1904)">
            <g
               id="g1908"
               transform="translate(413.7999,274.1901)">
              <path
                 id="path1906"
                 style="fill:#3b4d57;fill-opacity:1;fill-rule:nonzero;stroke:none"
                 d="M 0,0 C 0.008,-0.007 -0.051,-0.031 -0.178,-0.094 -0.238,-0.115 -0.308,-0.165 -0.365,-0.233 -0.434,-0.312 -0.513,-0.399 -0.601,-0.487 -0.782,-0.658 -0.96,-0.894 -1.166,-1.115 -1.37,-1.341 -1.593,-1.57 -1.801,-1.814 -2.023,-2.045 -2.222,-2.295 -2.425,-2.52 -2.624,-2.747 -2.835,-2.95 -2.99,-3.144 -3.144,-3.338 -3.309,-3.486 -3.401,-3.603 -3.509,-3.715 -3.57,-3.779 -3.57,-3.779 c 0,0 0.01,0.089 0.026,0.244 0.034,0.147 0.057,0.376 0.153,0.62 0.097,0.243 0.195,0.542 0.367,0.824 0.166,0.287 0.383,0.566 0.618,0.829 0.247,0.252 0.508,0.49 0.779,0.679 0.272,0.189 0.563,0.31 0.795,0.428 0.119,0.056 0.236,0.093 0.336,0.128 0.117,0.041 0.219,0.052 0.305,0.049 C 0,0 -0.001,-0.01 0,0" />
            </g>
          </g>
        </g>
      </g>
    </g>
  </g>
</svg>
